<?xml version="1.0" standalone="no"?>
<!DOCTYPE svg PUBLIC "-//W3C//DTD SVG 1.1//EN" "http://www.w3.org/Graphics/SVG/1.1/DTD/svg11.dtd" >
<svg xmlns="http://www.w3.org/2000/svg">
<metadata>
This is a custom SVG webfont generated by Font Squirrel.
Designer    : Monotype Type Drawing Office
Foundry     : Monotype Typography Inc
Foundry URL : httpwwwmonotypecomhtmlmtnamemswelcomehtml
</metadata>
<defs>
<font id="webfontd60hyItJ" horiz-adv-x="2270" >
<font-face units-per-em="4096" ascent="3276" descent="-820" />
<missing-glyph horiz-adv-x="1134" />
<glyph unicode=" "  horiz-adv-x="1134" />
<glyph unicode="&#x09;" horiz-adv-x="1134" />
<glyph unicode="&#xa0;" horiz-adv-x="1134" />
<glyph unicode="!" horiz-adv-x="1208" d="M746 3016v-2280h-290v2280h290zM604 440q102 0 174 -72t72 -176q0 -102 -72 -175t-174 -73t-174 73t-72 175q0 104 72 176t174 72z" />
<glyph unicode="&#x22;" horiz-adv-x="1266" d="M1124 2090h-206l-44 926h296zM348 2090h-208l-44 926h296z" />
<glyph unicode="#" horiz-adv-x="2950" d="M2466 1204v-216h-496l-144 -988h-224l144 988h-666l-152 -988h-220l152 988h-492v216h526l102 668h-506v218h538l140 936h214l-136 -936h664l136 936h224l-138 -936h448v-218h-480l-96 -668h462zM1880 1872h-668l-98 -668h664z" />
<glyph unicode="$" d="M1062 3148h262v-218q194 -36 335 -128q139 -91 267 -272l-216 -174q-155 239 -386 288v-998q526 -277 652 -448q164 -221 164 -486q0 -221 -121 -403q-121 -183 -327 -285q-133 -66 -368 -96v-626h-262v626q-245 19 -394 78t-289 175q-141 117 -235 271l214 162 q278 -368 704 -410v1238q-315 155 -398 210q-170 116 -252 258t-82 328q0 180 90 334q89 153 245 250q154 96 397 120v206zM1062 2664q-152 -12 -242 -67q-93 -57 -145 -148q-53 -94 -53 -205q0 -144 84 -244q113 -137 356 -246v910zM1324 212q243 35 387 176 q145 142 145 318q0 172 -111 318t-421 312v-1124z" />
<glyph unicode="%" horiz-adv-x="3174" d="M2762 3072l-2144 -3276h-264l1950 2984q-346 -84 -844 -84l-108 2q124 -172 124 -364q0 -273 -191 -490q-191 -216 -507 -216q-290 0 -488 201t-198 489q0 192 90 349t256 253t340 96q74 0 244 -36q262 -56 564 -56q220 0 423 29q195 28 517 119h236zM784 2762 q-182 0 -310 -129q-128 -130 -128 -311q0 -182 128 -310t310 -128q181 0 311 128q129 128 129 310t-129 311t-311 129zM2390 1298q286 0 489 -203t203 -489t-203 -489t-489 -203t-489 203t-203 489t203 489t489 203zM2390 1044q-182 0 -310 -128t-128 -310t128 -310 t310 -128q181 0 311 128q129 128 129 310t-129 310q-130 128 -311 128z" />
<glyph unicode="&#x26;" horiz-adv-x="3100" d="M2584 1088l200 -212q-197 -174 -346 -294l294 -302q152 -152 262 -280h-410l-378 394q-378 -287 -610 -378q-230 -90 -486 -90q-340 0 -546 195t-206 487q0 221 139 441q141 222 567 559q-244 296 -311 431q-69 139 -69 265q0 220 170 364q196 168 488 168q183 0 336 -74 q152 -74 232 -199t80 -265q0 -148 -104 -315q-104 -168 -410 -427l446 -468l306 -306zM1294 1776q215 167 322 326q76 113 76 202q0 102 -99 176q-100 74 -263 74q-157 0 -254 -76q-98 -77 -98 -180q0 -80 40 -150q98 -170 276 -372zM1258 1386q-375 -283 -490 -449 q-116 -167 -116 -309q0 -168 142 -297t348 -129q157 0 306 64q234 101 558 332l-480 492z" />
<glyph unicode="'" horiz-adv-x="810" d="M508 2090h-206l-44 926h296z" />
<glyph unicode="(" horiz-adv-x="1512" d="M940 3072h324q-194 -398 -314 -938q-118 -533 -118 -1106q0 -525 89 -1018q88 -488 245 -862h-308q-146 350 -236 838q-88 479 -88 1004q0 560 104 1095q103 530 302 987z" />
<glyph unicode=")" horiz-adv-x="1512" d="M572 -852h-324q198 402 315 938t117 1106q0 525 -89 1018q-88 488 -245 862h308q150 -355 237 -839q87 -483 87 -1005q0 -558 -104 -1093q-103 -530 -302 -987z" />
<glyph unicode="*" horiz-adv-x="1740" d="M738 3016h260l-58 -594l492 352l132 -224l-554 -250l554 -246l-132 -226l-492 348l58 -594h-260l62 594l-492 -348l-132 226l562 246l-562 250l132 224l492 -352z" />
<glyph unicode="+" horiz-adv-x="2482" d="M1104 1608v868h274v-868h876v-274h-876v-868h-274v868h-874v274h874z" />
<glyph unicode="," horiz-adv-x="1134" d="M590 540l270 -128l-406 -756l-198 84z" />
<glyph unicode="-" horiz-adv-x="1360" d="M130 1228h1100v-244h-1100v244z" />
<glyph unicode="." horiz-adv-x="1134" d="M620 440q102 0 174 -72t72 -176q0 -102 -72 -175t-174 -73t-174 73t-72 175q0 104 72 176t174 72z" />
<glyph unicode="/" horiz-adv-x="1790" d="M1672 3016l-1222 -3416h-306l1220 3416h308z" />
<glyph unicode="0" d="M130 1470q0 581 125 900q125 318 353 482q229 164 510 164q286 0 518 -165t367 -495t135 -886q0 -555 -133 -882q-134 -329 -367 -495q-235 -167 -520 -167q-282 0 -508 162q-225 161 -353 483q-127 320 -127 899zM408 1464q0 -497 89 -753q88 -254 263 -387 q174 -132 368 -132q196 0 366 129t258 387q110 315 110 756q0 442 -98 727q-97 282 -271 414q-173 131 -365 131q-195 0 -368 -131q-172 -130 -262 -386q-90 -255 -90 -755z" />
<glyph unicode="1" d="M758 2942h578v-2942h-292v2654h-462z" />
<glyph unicode="2" d="M474 2020h-282q12 435 291 716q279 280 689 280q407 0 657 -262q251 -263 251 -618q0 -250 -120 -469q-121 -222 -466 -593l-732 -790h1358v-284h-1998l1124 1214q341 365 445 543q103 176 103 373q0 248 -185 427t-453 179q-281 0 -469 -188q-187 -188 -213 -528z" />
<glyph unicode="3" d="M542 2260h-300q82 364 314 560t548 196q230 0 429 -105q198 -104 308 -283q109 -178 109 -372q0 -380 -378 -602q212 -86 348 -252q192 -234 192 -524q0 -250 -132 -477t-360 -351q-227 -124 -510 -124q-380 0 -634 219q-254 220 -332 643h288q77 -288 218 -414 q182 -162 464 -162q320 0 514 192t194 450q0 173 -97 322q-97 150 -260 226q-162 76 -505 94v270q200 0 368 71q165 70 241 181q75 110 75 240q0 192 -153 332q-154 140 -387 140q-189 0 -328 -107q-138 -107 -234 -363z" />
<glyph unicode="4" d="M1744 3016h60v-2050h356v-282h-356v-684h-294v684h-1406zM1510 966v1226l-866 -1226h866z" />
<glyph unicode="5" d="M2014 2942v-280h-1048l-146 -802q194 56 346 56q402 0 663 -269t261 -689q0 -290 -134 -532t-363 -371t-529 -129q-358 0 -604 219t-294 567h302q35 -170 115 -276q81 -106 216 -171q136 -65 283 -65q290 0 498 220t208 550q0 298 -188 484t-502 186q-258 0 -630 -158 l272 1460h1274z" />
<glyph unicode="6" d="M1502 3016l242 -158l-794 -1204q160 54 300 54q350 0 594 -253t244 -623q0 -254 -118 -459t-335 -326t-467 -121q-242 0 -449 117q-206 116 -325 329q-118 211 -118 454q0 181 73 379q73 197 261 479zM1180 1450q-256 0 -437 -181t-181 -439q0 -256 181 -437t437 -181 t437 181t181 437q0 258 -181 439t-437 181z" />
<glyph unicode="7" d="M294 2942h1866l-1574 -3016l-242 124l1360 2614h-1410v278z" />
<glyph unicode="8" d="M1574 1614q299 -149 427 -338q129 -190 129 -432q0 -340 -222 -600q-272 -318 -778 -318q-488 0 -740 279t-252 615q0 246 132 443q132 196 440 351q-217 113 -324 278q-108 166 -108 356q0 193 115 375q115 183 318 288t439 105q230 0 426 -106t307 -288t111 -382 t-105 -356t-315 -270zM1136 2730q-241 0 -401 -143q-159 -143 -159 -341q0 -196 171 -355t399 -159q146 0 276 72q129 71 203 197q73 124 73 251q0 178 -144 328t-418 150zM1150 1466q-304 0 -510 -197t-206 -459q0 -163 88 -306q88 -144 246 -222t366 -78q322 0 512 190 t190 444q0 246 -201 437q-202 191 -485 191z" />
<glyph unicode="9" d="M786 -74l-242 156l794 1204q-159 -52 -300 -52q-350 0 -594 253t-244 623q0 255 118 458q119 206 335 326q218 122 465 122q245 0 451 -118t325 -330q118 -211 118 -452q0 -183 -73 -381q-73 -197 -261 -479zM1106 1492q258 0 439 181t181 437t-181 437t-439 181 q-256 0 -437 -181t-181 -437t181 -437t437 -181z" />
<glyph unicode=":" horiz-adv-x="1134" d="M620 2232q102 0 174 -72t72 -176t-72 -176t-174 -72t-174 72t-72 176q0 102 72 175t174 73zM620 440q102 0 174 -72t72 -176q0 -102 -72 -175t-174 -73t-174 73t-72 175q0 104 72 176t174 72z" />
<glyph unicode=";" horiz-adv-x="1134" d="M620 2232q102 0 174 -72t72 -176t-72 -176t-174 -72t-174 72t-72 176q0 102 72 175t174 73zM590 540l270 -128l-406 -756l-198 84z" />
<glyph unicode="&#x37e;" horiz-adv-x="1134" d="M620 2232q102 0 174 -72t72 -176t-72 -176t-174 -72t-174 72t-72 176q0 102 72 175t174 73zM590 540l270 -128l-406 -756l-198 84z" />
<glyph unicode="&#x3c;" horiz-adv-x="2482" d="M2274 694v-292l-2066 938v260l2066 942v-294l-1678 -780z" />
<glyph unicode="=" horiz-adv-x="2482" d="M2254 2048v-274h-2024v274h2024zM2254 1168v-274h-2024v274h2024z" />
<glyph unicode="&#x3e;" horiz-adv-x="2482" d="M208 694l1678 774l-1678 780v294l2066 -942v-260l-2066 -938v292z" />
<glyph unicode="?" horiz-adv-x="2420" d="M630 2142h-290q5 404 241 639t635 235q392 0 616 -198t224 -492q0 -141 -61 -259q-63 -121 -185 -214q-128 -97 -434 -217q-390 -156 -472 -232q-84 -78 -84 -188q0 -116 113 -208t293 -92q197 0 304 101q106 100 130 323h292q-14 -334 -207 -519q-194 -185 -519 -185 q-324 0 -516 168t-192 414q0 119 53 227q53 107 150 179q100 74 365 182q433 176 554 264q120 88 120 252q0 174 -147 294t-393 120q-300 0 -466 -198q-117 -139 -124 -396zM1214 440q102 0 174 -72t72 -176q0 -102 -72 -175t-174 -73t-174 73t-72 175q0 104 72 176t174 72z " />
<glyph unicode="@" horiz-adv-x="3552" d="M2888 602h212q-269 -335 -496 -468q-325 -188 -738 -188q-438 0 -808 207t-577 565t-207 782q0 429 209 800q207 369 569 575q359 205 788 205q604 0 1020 -387t416 -901q0 -373 -173 -645q-172 -270 -469 -421q-227 -116 -386 -116q-116 0 -184 62q-53 47 -54 160 q-67 -85 -187 -144q-117 -58 -247 -58q-289 0 -476 199q-188 200 -188 527q0 354 228 646t628 292q176 0 295 -66q118 -66 225 -230l52 276h216l-232 -1308q-10 -61 -10 -82q0 -47 28 -72q29 -26 72 -26q117 0 307 137q188 136 294 352q105 215 105 477q0 508 -394 842 q-367 310 -896 310q-391 0 -711 -179q-319 -179 -504 -504q-185 -326 -185 -703q0 -382 186 -705q186 -322 515 -507q328 -184 725 -184q289 0 526 104q235 103 506 376zM1676 856q132 0 248 83q117 84 184 249q88 216 88 438q0 201 -113 328q-113 126 -293 126 q-239 0 -415 -197q-175 -196 -175 -491q0 -246 133 -391t343 -145z" />
<glyph unicode="A" horiz-adv-x="3030" d="M1560 2942l1372 -2942h-316l-462 968h-1268l-460 -968h-328l1390 2942h72zM1524 2318l-506 -1066h1006z" />
<glyph unicode="B" horiz-adv-x="2352" d="M366 2942h580q349 0 538 -83q188 -83 297 -255t109 -382q0 -196 -96 -357t-282 -261q230 -78 354 -183q123 -104 193 -254q69 -149 69 -323q0 -355 -259 -599q-260 -245 -695 -245h-808v2942zM654 2654v-942h168q306 0 450 57t228 180t84 273q0 202 -141 317 q-140 115 -449 115h-340zM654 1416v-1128h364q322 0 472 63q149 63 241 197q91 133 91 290q0 196 -128 342t-352 200q-150 36 -522 36h-166z" />
<glyph unicode="C" horiz-adv-x="3330" d="M3098 2396l-232 -178q-191 249 -461 379q-269 129 -591 129q-353 0 -652 -169q-300 -170 -465 -454q-165 -285 -165 -641q0 -538 369 -898t931 -360q619 0 1034 484l232 -176q-220 -280 -549 -433t-735 -153q-773 0 -1218 514q-374 434 -374 1048q0 646 453 1087 t1135 441q414 0 744 -163q334 -165 544 -457z" />
<glyph unicode="D" horiz-adv-x="3048" d="M358 0v2942h610q661 0 958 -106q428 -150 669 -520t241 -882q0 -441 -191 -778q-190 -335 -496 -496q-304 -160 -855 -160h-936zM640 278h340q612 0 846 76q331 108 522 389q190 280 190 687q0 426 -206 728q-205 301 -574 414q-276 84 -910 84h-208v-2378z" />
<glyph unicode="E" horiz-adv-x="2196" d="M360 2942h1686v-290h-1392v-920h1380v-288h-1380v-1154h1380v-290h-1674v2942z" />
<glyph unicode="F" horiz-adv-x="1986" d="M358 2942h1474v-290h-1182v-920h1182v-290h-1182v-1442h-292v2942z" />
<glyph unicode="G" horiz-adv-x="3572" d="M3196 2448l-228 -216q-247 243 -539 367q-294 125 -571 125q-345 0 -659 -170q-312 -168 -485 -461q-172 -290 -172 -615q0 -333 178 -631q179 -299 492 -470q314 -171 688 -171q455 0 768 256q314 257 372 664h-938v284h1268q-4 -682 -405 -1083t-1073 -401 q-817 0 -1292 556q-366 428 -366 990q0 418 210 778q210 361 576 563q367 203 828 203q374 0 704 -135q332 -136 644 -433z" />
<glyph unicode="H" horiz-adv-x="2798" d="M354 2942h296v-1234h1496v1234h296v-2942h-296v1420h-1496v-1420h-296v2942z" />
<glyph unicode="I" horiz-adv-x="926" d="M316 2942h294v-2942h-294v2942z" />
<glyph unicode="J" horiz-adv-x="1974" d="M1320 2942h296v-1986q0 -457 -71 -637t-237 -286q-167 -107 -402 -107q-178 0 -351 69t-383 243l156 234q228 -161 382 -228q102 -44 196 -44q126 0 229 76q104 77 144 202q41 128 41 488v1976z" />
<glyph unicode="K" horiz-adv-x="2420" d="M358 2942h300v-1104l1174 1104h398l-1414 -1320l1524 -1622h-390l-1292 1372v-1372h-300v2942z" />
<glyph unicode="L" horiz-adv-x="1892" d="M358 2942h296v-2658h1130v-284h-1426v2942z" />
<glyph unicode="M" horiz-adv-x="3764" d="M224 0l418 2942h48l1196 -2414l1184 2414h48l422 -2942h-290l-288 2104l-1040 -2104h-74l-1054 2120l-286 -2120h-284z" />
<glyph unicode="N" horiz-adv-x="3030" d="M360 0v2942h64l1956 -2252v2252h290v-2942h-66l-1940 2224v-2224h-304z" />
<glyph unicode="O" horiz-adv-x="3560" d="M1760 3016q667 0 1118 -446q450 -446 450 -1098q0 -645 -449 -1096q-449 -450 -1095 -450q-655 0 -1104 448q-450 448 -450 1084q0 425 205 786q206 362 559 567t766 205zM1774 2728q-325 0 -618 -170q-292 -169 -456 -458t-164 -642q0 -524 363 -885q362 -361 875 -361 q343 0 633 166q291 166 454 454q163 287 163 640q0 350 -163 633t-459 453t-628 170z" />
<glyph unicode="P" horiz-adv-x="2424" d="M356 2942h586q502 0 680 -44q251 -61 412 -255q160 -193 160 -485q0 -294 -156 -485q-157 -191 -430 -257q-200 -48 -748 -48h-210v-1368h-294v2942zM650 2656v-1000l498 -6q304 0 442 55q141 56 220 178q80 124 80 275q0 147 -80 271q-79 122 -211 175q-129 52 -429 52 h-520z" />
<glyph unicode="Q" horiz-adv-x="3568" d="M2826 320l436 -552h-362l-300 380q-360 -222 -812 -222q-655 0 -1104 448q-450 448 -450 1084q0 423 206 787q206 363 561 567t779 204q654 0 1103 -447t449 -1099q0 -340 -123 -622q-123 -281 -383 -528zM2644 550q384 374 384 922q0 350 -163 633t-459 453t-624 170 q-330 0 -622 -169q-293 -170 -456 -458q-164 -290 -164 -643q0 -523 362 -885q361 -361 874 -361q350 0 640 170l-656 832h358z" />
<glyph unicode="R" horiz-adv-x="2486" d="M374 2942h586q492 0 664 -40q262 -60 426 -257t164 -485q0 -240 -113 -422t-323 -275q-211 -94 -580 -95l1058 -1368h-364l-1056 1368h-168v-1368h-294v2942zM668 2654v-1000l506 -4q293 0 435 56q140 55 220 179q79 122 79 275q0 147 -80 269q-79 120 -210 173 q-129 52 -432 52h-518z" />
<glyph unicode="S" horiz-adv-x="2040" d="M54 548l250 150q264 -486 610 -486q148 0 278 69t198 185t68 246q0 148 -100 290q-137 195 -504 472q-369 278 -458 402q-156 208 -156 450q0 192 92 350q91 157 259 249q166 91 363 91q208 0 389 -103q180 -103 383 -379l-240 -182q-166 219 -283 290q-116 70 -255 70 q-178 0 -291 -108t-113 -266q0 -97 40 -186q41 -91 146 -196q62 -59 380 -294q381 -281 524 -502q142 -220 142 -442q0 -320 -243 -556q-244 -236 -591 -236q-268 0 -486 143q-217 142 -402 479z" />
<glyph unicode="T" horiz-adv-x="1744" d="M66 2656v286h1614v-286h-656v-2656h-300v2656h-658z" />
<glyph unicode="U" horiz-adv-x="2682" d="M368 2942h294v-1776q0 -316 12 -394q22 -174 102 -291q79 -116 246 -196q165 -79 334 -79q145 0 280 62q133 61 224 172q90 109 132 266q30 112 30 460v1776h294v-1776q0 -392 -77 -637q-76 -242 -308 -423q-231 -180 -559 -180q-356 0 -610 170q-255 170 -340 450 q-54 172 -54 620v1776z" />
<glyph unicode="V" horiz-adv-x="2876" d="M134 2942h320l974 -2274l992 2274h320l-1280 -2942h-64z" />
<glyph unicode="W" horiz-adv-x="3932" d="M192 2942h302l598 -2120l844 2120h60l834 -2120l610 2120h300l-844 -2942h-56l-872 2226l-890 -2226h-56z" />
<glyph unicode="X" horiz-adv-x="2494" d="M202 2942h344l704 -1148l710 1148h340l-876 -1426l934 -1516h-344l-764 1234l-768 -1234h-344l938 1516z" />
<glyph unicode="Y" horiz-adv-x="2424" d="M126 2942h340l752 -1212l740 1212h340l-932 -1536v-1406h-290v1406z" />
<glyph unicode="Z" horiz-adv-x="1966" d="M244 2658v284h1552l-1230 -2656h1168v-286h-1622l1238 2658h-1106z" />
<glyph unicode="[" horiz-adv-x="1438" d="M580 3016h672v-284h-392v-3254h392v-274h-672v3812z" />
<glyph unicode="\" horiz-adv-x="2478" d="M440 3016l1904 -3416h-306l-1906 3416h308z" />
<glyph unicode="]" horiz-adv-x="1438" d="M858 -796h-672v284h390v3254h-390v274h672v-3812z" />
<glyph unicode="^" horiz-adv-x="2752" d="M1258 2942h236l1020 -2212h-266l-878 1904l-872 -1904h-258z" />
<glyph unicode="_" horiz-adv-x="2048" d="M-24 -308h2096v-204h-2096v204z" />
<glyph unicode="`" horiz-adv-x="1548" d="M652 3196l436 -616h-276l-590 616h430z" />
<glyph unicode="a" horiz-adv-x="2798" d="M2480 2176v-2176h-276v374q-174 -213 -395 -322q-219 -108 -479 -108q-462 0 -789 335t-327 815q0 470 330 804t794 334q268 0 485 -114t381 -342v400h276zM1360 1962q-235 0 -432 -115q-199 -116 -315 -323q-117 -208 -117 -440q0 -231 118 -440q119 -211 317 -327 q199 -117 427 -117q230 0 436 116t317 314t111 446q0 378 -249 632t-613 254z" />
<glyph unicode="b" horiz-adv-x="2794" d="M330 0v3016h278v-1214q176 216 394 323q219 107 478 107q462 0 789 -335t327 -813q0 -472 -330 -806t-794 -334q-266 0 -482 114q-215 114 -382 342v-400h-278zM1450 214q235 0 432 115q199 116 315 323q117 208 117 440q0 233 -118 442q-119 211 -317 327 q-199 117 -425 117q-230 0 -437 -117t-318 -315t-111 -446q0 -378 249 -632t613 -254z" />
<glyph unicode="c" horiz-adv-x="2650" d="M2424 1724l-222 -138q-288 382 -786 382q-399 0 -661 -256q-263 -257 -263 -622q0 -239 121 -448q122 -212 332 -326q212 -116 473 -116q480 0 784 382l222 -146q-156 -234 -419 -363t-599 -129q-516 0 -856 328t-340 798q0 316 159 587t437 423t622 152q216 0 417 -66 q203 -67 341 -172q141 -108 238 -270z" />
<glyph unicode="d" horiz-adv-x="2806" d="M2484 3016v-3016h-276v374q-174 -213 -395 -322q-219 -108 -479 -108q-462 0 -789 335t-327 815q0 470 330 804t794 334q268 0 485 -114t381 -342v1240h276zM1364 1962q-235 0 -432 -115q-199 -116 -315 -323q-117 -208 -117 -440q0 -231 118 -440q119 -211 317 -327 q199 -117 427 -117q230 0 436 116t317 314t111 446q0 378 -249 632t-613 254z" />
<glyph unicode="e" horiz-adv-x="2662" d="M2144 722l236 -124q-115 -227 -268 -368q-152 -140 -342 -213q-189 -73 -430 -73q-532 0 -832 349t-300 789q0 413 254 738q322 412 862 412q556 0 888 -422q236 -298 240 -744h-1956q7 -379 242 -623q234 -243 578 -243q167 0 323 58q158 59 267 154q112 98 238 310z M2144 1308q-55 223 -163 358q-106 133 -283 216q-174 82 -370 82q-320 0 -550 -206q-169 -151 -254 -450h1620z" />
<glyph unicode="f" horiz-adv-x="1286" d="M1208 3016v-274q-154 66 -264 66q-82 0 -136 -33q-55 -33 -68 -76q-14 -45 -14 -229v-294h454v-240h-456v-1936h-280v1936h-286v240h286v340q0 235 43 334q43 100 146 161t249 61q134 0 326 -56z" />
<glyph unicode="g" horiz-adv-x="2756" d="M2186 2176h282v-1734q0 -457 -80 -670q-109 -299 -382 -462q-272 -162 -654 -162q-281 0 -503 79q-225 80 -363 212q-140 134 -258 389h304q125 -217 320 -320q197 -104 486 -104q286 0 483 107t281 269t84 522v112q-158 -201 -386 -307q-229 -107 -484 -107 q-299 0 -564 149q-264 148 -408 401q-144 252 -144 554t150 563q151 262 415 413q266 152 559 152q242 0 455 -101q210 -100 407 -333v378zM1360 1962q-239 0 -442 -115q-205 -116 -320 -318q-116 -203 -116 -439q0 -358 240 -592t622 -234q386 0 621 232t235 610 q0 246 -108 439q-107 192 -306 305q-197 112 -426 112z" />
<glyph unicode="h" horiz-adv-x="2498" d="M312 3016h280v-1230q170 224 374 335t442 111q245 0 433 -124q189 -124 279 -333t90 -655v-1120h-280v1038q0 376 -30 502q-52 215 -189 325q-136 109 -359 109q-254 0 -455 -168q-200 -167 -265 -416q-40 -159 -40 -592v-798h-280v3016z" />
<glyph unicode="i" horiz-adv-x="820" d="M410 3072q96 0 164 -68t68 -164q0 -94 -68 -162t-164 -68q-94 0 -162 68t-68 162q0 96 68 164t162 68zM270 2176h282v-2176h-282v2176z" />
<glyph unicode="j" horiz-adv-x="832" d="M416 3072q95 0 163 -68q67 -67 67 -164q0 -95 -67 -162q-68 -68 -163 -68t-163 68q-67 67 -67 162q0 97 67 164q68 68 163 68zM278 2176h284v-2504q0 -274 -99 -399t-271 -125q-140 0 -320 68v252q112 -58 202 -58q115 0 170 94q34 59 34 250v2422z" />
<glyph unicode="k" horiz-adv-x="2056" d="M310 3016h282v-1716l1006 876h412l-1194 -1038l1264 -1138h-396l-1092 978v-978h-282v3016z" />
<glyph unicode="l" horiz-adv-x="820" d="M270 3016h280v-3016h-280v3016z" />
<glyph unicode="m" horiz-adv-x="3842" d="M310 2176h278v-376q145 208 300 304q212 128 446 128q156 0 300 -62q142 -61 232 -165t156 -295q138 254 350 389q209 133 452 133q226 0 399 -114t257 -318t84 -612v-1188h-286v1188q0 349 -50 481t-171 211q-122 80 -289 80q-204 0 -373 -120q-169 -119 -247 -320 q-78 -200 -78 -668v-852h-278v1114q0 395 -49 535t-171 226q-121 85 -290 85q-194 0 -363 -117t-250 -315t-81 -606v-922h-278v2176z" />
<glyph unicode="n" horiz-adv-x="2498" d="M312 2176h280v-390q169 224 372 335q204 111 444 111q245 0 433 -124q189 -125 279 -334q90 -210 90 -654v-1120h-278v1038q0 374 -32 502q-49 215 -188 325q-137 109 -360 109q-254 0 -455 -168q-200 -167 -265 -416q-40 -160 -40 -592v-798h-280v2176z" />
<glyph unicode="o" horiz-adv-x="2682" d="M1342 2232q502 0 832 -364q300 -332 300 -786q0 -456 -317 -797t-815 -341q-500 0 -817 341t-317 797q0 452 300 784q330 366 834 366zM1342 1958q-348 0 -598 -258q-250 -257 -250 -624q0 -236 114 -440t308 -315t426 -111t426 111t308 315t114 440q0 365 -251 624 q-251 258 -597 258z" />
<glyph unicode="p" horiz-adv-x="2794" d="M316 2176h278v-400q167 228 382 342q216 114 482 114q464 0 794 -334t330 -804q0 -480 -327 -815t-789 -335q-260 0 -478 108q-220 109 -394 322v-1170h-278v2972zM1436 1962q-364 0 -613 -254t-249 -632q0 -248 111 -446q111 -199 318 -314q208 -116 437 -116 q226 0 425 117q198 116 317 327q118 209 118 440q0 232 -117 440q-116 207 -315 323q-197 115 -432 115z" />
<glyph unicode="q" horiz-adv-x="2794" d="M2478 2176v-2972h-276v1170q-174 -213 -395 -322q-219 -108 -479 -108q-462 0 -789 335t-327 815q0 470 330 804t794 334q268 0 485 -114t381 -342v400h276zM1358 1962q-235 0 -432 -115q-199 -116 -315 -323q-117 -208 -117 -440q0 -231 118 -440q119 -211 317 -327 q199 -117 427 -117q230 0 436 116t317 314t111 446q0 378 -249 632t-613 254z" />
<glyph unicode="r" horiz-adv-x="1232" d="M206 2176h286v-318q128 188 270 281t296 93q115 0 248 -74l-146 -236q-90 38 -148 38q-140 0 -270 -115t-198 -357q-52 -184 -52 -752v-736h-286v2176z" />
<glyph unicode="s" horiz-adv-x="1590" d="M1406 1938l-180 -186q-224 218 -438 218q-136 0 -233 -90t-97 -210q0 -105 80 -202q80 -98 336 -230q311 -162 424 -312q110 -152 110 -342q0 -268 -188 -454t-470 -186q-189 0 -359 82q-171 82 -283 226l176 200q215 -242 454 -242q168 0 286 108t118 254q0 120 -78 214 q-80 94 -352 232q-293 151 -400 300q-106 148 -106 338q0 249 169 412q170 164 427 164q300 0 604 -294z" />
<glyph unicode="t" horiz-adv-x="1388" d="M556 2984h282v-808h444v-240h-444v-1936h-282v1936h-382v240h382v808z" />
<glyph unicode="u" horiz-adv-x="2490" d="M276 2176h282v-1016q0 -374 40 -512q61 -201 229 -316q170 -116 403 -116t397 113q163 113 225 297q42 126 42 534v1016h286v-1068q0 -450 -105 -678t-316 -357t-529 -129t-531 129t-318 360t-105 695v1048z" />
<glyph unicode="v" d="M106 2176h298l728 -1584l722 1584h300l-996 -2176h-50z" />
<glyph unicode="w" horiz-adv-x="3404" d="M18 2176h288l666 -1580l698 1580h50l696 -1580l678 1580h292l-944 -2176h-54l-692 1558l-698 -1558h-52z" />
<glyph unicode="x" horiz-adv-x="1966" d="M64 2176h336l576 -806l576 806h336l-744 -1034l838 -1142h-340l-666 914l-656 -914h-334l824 1142z" />
<glyph unicode="y" horiz-adv-x="2196" d="M78 2176h296l748 -1676l726 1676h298l-1298 -2972h-296l420 960z" />
<glyph unicode="z" horiz-adv-x="1740" d="M134 2176h1598l-1232 -1928h1192v-248h-1674l1232 1930h-1116v246z" />
<glyph unicode="{" horiz-adv-x="1438" d="M150 1182q122 4 198 48q99 59 149 160t61 288q4 79 7 422q3 331 43 472q40 142 124 226q85 85 214 122q76 22 250 22h112v-314h-62q-209 0 -277 -77q-67 -76 -67 -335q0 -462 -14 -594q-26 -247 -117 -377q-92 -131 -287 -225q220 -94 319 -283t99 -619q0 -379 8 -454 q12 -106 50 -166q29 -41 89 -63q63 -23 259 -23v-314h-112q-202 0 -292 34q-134 50 -215 161t-105 297q-19 136 -20 492q-1 366 -41 498q-39 131 -133 201q-94 71 -240 75v326z" />
<glyph unicode="|" horiz-adv-x="2752" d="M1232 3016h286v-3812h-286v3812z" />
<glyph unicode="}" horiz-adv-x="1438" d="M1288 1182v-326q-120 -1 -198 -46q-99 -59 -149 -160t-61 -288q-4 -79 -7 -423q-3 -333 -43 -472q-41 -141 -124 -226q-84 -85 -214 -121q-76 -22 -250 -22h-112v314h62q210 0 277 76t67 334q0 481 16 608q29 242 127 378q98 135 275 212q-235 113 -326 295 q-92 184 -92 605q0 442 -18 518q-23 103 -85 146q-64 44 -241 44h-62v314h112q200 0 292 -36q135 -48 215 -160q81 -113 105 -296q19 -136 20 -492q1 -367 41 -499t133 -202q94 -71 240 -75z" />
<glyph unicode="~" horiz-adv-x="2482" d="M2256 1674v-324q-224 -126 -321 -159t-183 -33q-191 0 -530 154q-268 122 -337 143q-75 23 -137 23q-86 0 -194 -38q-102 -36 -330 -172v320q216 122 318 158q96 34 190 34q194 0 536 -162q232 -111 323 -139q87 -27 157 -27q84 0 170 33q87 34 338 189z" />
<glyph unicode="&#xa1;" horiz-adv-x="1208" d="M604 2220q102 0 174 -72t72 -176t-72 -176t-174 -72t-174 72t-72 176q0 102 72 175t174 73zM462 -852v2280h290v-2280h-290z" />
<glyph unicode="&#xa2;" d="M1922 2680l242 -120l-264 -514q142 -90 232 -188l-170 -210q-86 83 -190 152l-788 -1532q149 -64 288 -64q293 0 612 256l182 -212q-157 -139 -368 -221q-213 -83 -424 -83q-191 0 -416 74l-304 -590l-234 128l302 602q-214 192 -316 418q-100 222 -100 494 q0 481 301 821q302 341 787 341q180 0 362 -66zM1530 1922q-128 42 -242 42q-342 0 -571 -241t-229 -637q0 -218 66 -382t200 -286z" />
<glyph unicode="&#xa3;" d="M198 1688h508q-108 385 -120 454q-22 111 -22 216q0 268 208 463t514 195q201 0 343 -85q144 -86 235 -246q92 -161 114 -435h-272q-7 241 -118 370q-110 128 -294 128q-201 0 -326 -113q-124 -112 -124 -297q0 -164 58 -326l14 -36l90 -288h640v-258h-572 q74 -254 74 -528q0 -212 -44 -376q122 -103 332 -230q120 -72 220 -72q189 0 212 464h282v-10q0 -229 -67 -413q-69 -190 -169 -264q-100 -75 -224 -75q-135 0 -290 70q-216 96 -394 250q-167 -320 -474 -320q-192 0 -305 101t-113 275q0 192 132 328t312 136q134 0 288 -78 q14 138 14 212q0 282 -90 530h-572v258zM770 414q-136 82 -228 82q-66 0 -110 -44t-44 -110q0 -64 39 -107t95 -43q150 0 248 222z" />
<glyph unicode="&#xa4;" d="M84 384l232 228q-123 165 -169 307q-47 144 -47 309q0 177 56 342q42 126 166 280l-240 234l180 182l240 -238q151 118 313 171t329 53q162 0 312 -48q149 -48 312 -164l234 226l176 -182l-232 -224q128 -159 179 -306q51 -148 51 -324q0 -173 -49 -317 q-50 -146 -169 -301l232 -228l-178 -180l-232 230q-157 -124 -313 -177t-329 -53t-325 52q-155 53 -317 178l-234 -230zM386 1224q0 -308 221 -526t531 -218q312 0 532 220t220 530t-219 529t-531 219t-533 -221t-221 -533z" />
<glyph unicode="&#xa5;" d="M1812 2942h332l-834 -1470h712v-234h-748v-310h748v-234h-748v-694h-288v694h-740v234h740v310h-740v234h706l-828 1470h334l674 -1204z" />
<glyph unicode="&#xa6;" horiz-adv-x="2752" d="M1232 1372v1644h286v-1534zM1232 -796v1914l286 108v-2022h-286z" />
<glyph unicode="&#xa7;" horiz-adv-x="2518" d="M1928 2388h-294q-23 189 -144 295q-122 107 -318 107q-211 0 -333 -104q-121 -103 -121 -256q0 -88 38 -162q52 -99 166 -197q112 -96 396 -265q328 -197 447 -302q115 -102 175 -226q58 -120 58 -238q0 -202 -155 -372q-156 -171 -417 -220q212 -132 324 -310t112 -362 q0 -264 -204 -446q-205 -182 -534 -182q-327 0 -542 166q-216 167 -258 410h296q47 -129 134 -198q145 -116 352 -116q211 0 335 106q125 107 125 256q0 137 -100 264q-103 130 -460 358q-344 220 -420 276q-168 131 -247 272q-79 142 -79 290q0 125 62 247q60 118 175 212 q112 91 283 141q-198 142 -277 286q-79 143 -79 320q0 278 201 456q200 178 543 178q332 0 528 -177t232 -507zM1014 1678q-220 -34 -341 -151t-121 -281q0 -147 106 -266q139 -158 534 -368q244 30 379 153t135 281q0 125 -94 228q-95 105 -570 386z" />
<glyph unicode="&#xa8;" horiz-adv-x="1512" d="M348 3036q96 0 164 -68t68 -164t-68 -164t-164 -68t-164 68t-68 164t68 164t164 68zM1164 3036q96 0 164 -68t68 -164t-68 -164t-164 -68t-164 68t-68 164t68 164t164 68z" />
<glyph unicode="&#xa9;" horiz-adv-x="3060" d="M3102 1514q0 -422 -210 -784q-210 -361 -575 -573q-364 -211 -785 -211t-786 211q-366 212 -576 574q-210 363 -210 783t210 783t575 573t787 210q420 0 785 -210t575 -573t210 -783zM2884 1514q0 364 -181 677t-495 495t-678 182q-362 0 -676 -182q-313 -181 -495 -496 q-181 -313 -181 -676q0 -365 181 -678q182 -314 496 -495t677 -181t676 181q314 181 495 495q181 313 181 678zM2300 1848h-272q-42 178 -159 267q-118 89 -311 89q-253 0 -408 -179q-154 -178 -154 -523q0 -337 148 -512q149 -176 386 -176q200 0 331 123q131 124 167 369 h272q-37 -328 -248 -522t-512 -194q-378 0 -604 243q-226 242 -226 673q0 453 235 704q235 252 597 252q334 0 534 -167t224 -447z" />
<glyph unicode="&#xaa;" horiz-adv-x="1512" d="M1328 2982v-1362h-228v188q-84 -110 -187 -165t-227 -55q-227 0 -400 203q-172 202 -172 513q0 306 174 509t402 203q122 0 225 -58q102 -58 185 -174v198h228zM730 2798q-153 0 -269 -140q-115 -139 -115 -358t116 -362q115 -142 266 -142q154 0 269 136t115 364 q0 224 -114 363t-268 139z" />
<glyph unicode="&#xab;" horiz-adv-x="1740" d="M782 2176l-446 -1092l446 -1084h-296l-444 1084l444 1092h296zM1698 2176l-448 -1092l448 -1084h-296l-444 1084l444 1092h296z" />
<glyph unicode="&#xac;" horiz-adv-x="2482" d="M2254 2048v-1154h-274l-2 880h-1748v274h2024z" />
<glyph unicode="&#xad;" horiz-adv-x="1360" d="M130 1228h1100v-244h-1100v244z" />
<glyph unicode="&#xae;" horiz-adv-x="3060" d="M3102 1520q0 -424 -210 -787q-210 -364 -576 -575q-367 -212 -784 -212q-419 0 -784 211q-366 212 -577 575q-211 364 -211 780q0 421 211 788q212 368 576 578q365 210 785 210q419 0 783 -209q363 -208 575 -577q212 -368 212 -782zM2884 1518q0 360 -182 677 q-182 318 -494 499q-313 182 -672 182q-362 0 -679 -182q-316 -181 -498 -499q-181 -316 -181 -681q0 -363 181 -676q183 -315 499 -496q319 -182 678 -182q358 0 672 183t495 496t181 679zM878 2434h754q263 0 380 -53q115 -52 189 -173q73 -119 73 -280q0 -138 -52 -238 q-40 -74 -174 -162q123 -61 164 -139q42 -79 42 -271v-204q0 -145 64 -240l30 -48h-320q-30 113 -42 266l-14 222q-8 123 -39 172q-32 50 -88 72t-227 22h-454v-754h-286v1808zM1164 2174v-536h444q203 0 274 46q106 66 106 224q0 138 -76 202t-286 64h-462z" />
<glyph unicode="&#xaf;" horiz-adv-x="2048" d="M-24 3454h2096v-206h-2096v206z" />
<glyph unicode="&#xb0;" horiz-adv-x="1638" d="M1510 2328q0 -290 -202 -489t-490 -199t-488 200t-200 494q0 283 205 482q206 200 489 200t485 -200q201 -200 201 -488zM1272 2324q0 205 -130 342q-130 138 -316 138q-188 0 -323 -139t-135 -337q0 -195 136 -335q136 -141 320 -141t316 138t132 334z" />
<glyph unicode="&#xb1;" horiz-adv-x="2248" d="M986 1826v868h274v-868h876v-274h-876v-868h-274v868h-874v274h874zM2136 322v-274h-2024v274h2024z" />
<glyph unicode="&#xb2;" horiz-adv-x="1360" d="M310 2468h-212q4 238 171 393t433 155q247 0 404 -137q156 -137 156 -327q0 -120 -66 -232q-67 -113 -286 -312l-380 -344h754v-198h-1272l716 650q212 192 264 273q52 80 52 159q0 108 -99 190q-98 82 -251 82q-169 0 -270 -92q-100 -91 -114 -260z" />
<glyph unicode="&#xb3;" horiz-adv-x="1410" d="M368 2586h-224q54 211 194 321q139 109 346 109q233 0 379 -121q147 -121 147 -285q0 -173 -182 -292q135 -65 205 -168q71 -104 71 -220q0 -203 -169 -351q-170 -149 -445 -149q-250 0 -403 123q-152 122 -199 359h218q41 -146 135 -215q95 -69 249 -69q180 0 287 87 t107 203q0 132 -120 206t-388 84v188q203 0 304 65q100 64 100 151q0 80 -81 143t-215 63q-111 0 -184 -52q-74 -52 -132 -180z" />
<glyph unicode="&#xb4;" horiz-adv-x="1536" d="M904 3196h430l-590 -616h-276z" />
<glyph unicode="&#xb5;" horiz-adv-x="2360" d="M294 -796v2972h282v-1200q0 -273 67 -406q68 -134 217 -225t324 -91q174 0 313 87t214 240t75 421v1174h280v-2176h-280v236q-118 -148 -267 -217t-337 -69t-339 69q-152 69 -267 211v-1026h-282z" />
<glyph unicode="&#xb6;" horiz-adv-x="2310" d="M966 -462v1874q-152 0 -222 16q-156 34 -282 135q-127 101 -200 270q-74 171 -74 377q0 378 232 616q194 200 598 200h1026v-150h-168v-3338h-238v3338h-434v-3338h-238z" />
<glyph unicode="&#xb7;" horiz-adv-x="1364" d="M1204 1740q96 0 164 -68t68 -164t-68 -164t-164 -68t-164 68t-68 164t68 164t164 68z" />
<glyph unicode="&#xb8;" horiz-adv-x="1328" d="M622 0h176l-34 -236q46 6 76 6q99 0 164 -61q66 -61 66 -153q0 -132 -120 -224q-121 -92 -338 -92q-178 0 -334 60l44 138q126 -40 240 -40q151 0 210 37q60 37 60 93q0 34 -33 60q-34 26 -91 26q-48 0 -140 -18z" />
<glyph unicode="&#xb9;" horiz-adv-x="1360" d="M448 2978h374v-1512h-220v1316h-300z" />
<glyph unicode="&#xba;" horiz-adv-x="1512" d="M754 3016q265 0 456 -206q190 -205 190 -512q0 -304 -189 -507t-457 -203q-266 0 -455 203t-189 507q0 308 190 513t454 205zM754 2796q-162 0 -286 -144q-124 -143 -124 -358q0 -214 121 -353t289 -139q170 0 291 139t121 353q0 215 -124 358q-124 144 -288 144z" />
<glyph unicode="&#xbb;" horiz-adv-x="1740" d="M958 0l446 1090l-446 1086h294l446 -1086l-446 -1090h-294zM42 0l446 1090l-446 1086h296l444 -1086l-444 -1090h-296z" />
<glyph unicode="&#xbc;" horiz-adv-x="3404" d="M376 2978h374v-1512h-220v1316h-300zM776 -74l1846 3090h224l-1850 -3090h-220zM3108 1572v-1056h210v-194h-210v-340h-222v340h-864zM2886 516v496l-428 -496h428z" />
<glyph unicode="&#xbd;" horiz-adv-x="3404" d="M354 2978h374v-1512h-220v1316h-300zM554 -74l1846 3090h224l-1850 -3090h-220zM2176 984h-212q4 238 171 393t433 155q247 0 404 -137q156 -137 156 -327q0 -120 -66 -232q-67 -113 -286 -312l-380 -344h754v-198h-1272l716 650q212 192 264 273q52 80 52 159 q0 108 -99 190q-98 82 -251 82q-169 0 -270 -92q-100 -91 -114 -260z" />
<glyph unicode="&#xbe;" horiz-adv-x="3404" d="M418 2586h-224q54 211 194 321q139 109 346 109q233 0 379 -121q147 -121 147 -285q0 -173 -182 -292q135 -65 205 -168q71 -104 71 -220q0 -203 -169 -351q-170 -149 -445 -149q-250 0 -403 123q-152 122 -199 359h218q41 -146 135 -215q95 -69 249 -69q180 0 287 87 t107 203q0 132 -120 206t-388 84v188q203 0 304 65q100 64 100 151q0 80 -81 143t-215 63q-111 0 -184 -52q-74 -52 -132 -180zM862 -74l1846 3090h224l-1850 -3090h-220zM3094 1572v-1056h210v-194h-210v-340h-222v340h-864zM2872 516v496l-428 -496h428z" />
<glyph unicode="&#xbf;" horiz-adv-x="2420" d="M1208 2220q102 0 174 -72t72 -176t-72 -176t-174 -72t-174 72t-72 176q0 102 72 175t174 73zM1792 22h290q-5 -404 -241 -639t-635 -235q-392 0 -616 198t-224 492q0 140 62 259q62 120 185 214q126 97 433 217q390 156 474 234q82 78 82 186q0 116 -113 208t-293 92 q-197 0 -304 -101q-106 -100 -130 -323h-292q13 334 207 520q193 186 519 186q324 0 516 -168t192 -416q0 -119 -53 -227q-53 -107 -150 -179q-100 -74 -365 -182q-432 -176 -552 -264q-122 -89 -122 -250q0 -174 147 -295q146 -121 393 -121q302 0 468 198q116 139 122 396 z" />
<glyph unicode="&#xc0;" horiz-adv-x="3030" d="M1560 2942l1372 -2942h-316l-462 968h-1268l-460 -968h-328l1390 2942h72zM1524 2318l-506 -1066h1006zM1394 3790l436 -616h-276l-590 616h430z" />
<glyph unicode="&#xc1;" horiz-adv-x="3030" d="M1560 2942l1372 -2942h-316l-462 968h-1268l-460 -968h-328l1390 2942h72zM1524 2318l-506 -1066h1006zM1650 3790h430l-590 -616h-276z" />
<glyph unicode="&#xc2;" horiz-adv-x="3030" d="M1560 2942l1372 -2942h-316l-462 968h-1268l-460 -968h-328l1390 2942h72zM1524 2318l-506 -1066h1006zM1382 3680h278l580 -514h-360l-352 304l-368 -304h-372z" />
<glyph unicode="&#xc3;" horiz-adv-x="3030" d="M1560 2942l1372 -2942h-316l-462 968h-1268l-460 -968h-328l1390 2942h72zM1524 2318l-506 -1066h1006zM2108 3578l140 -194q-145 -105 -243 -140q-99 -36 -209 -36q-143 0 -296 74q-126 62 -166 74q-50 14 -104 14q-71 0 -133 -25q-66 -27 -183 -113l-132 204 q182 194 450 194q126 0 306 -80q170 -78 268 -78q111 0 302 106z" />
<glyph unicode="&#xc4;" horiz-adv-x="3030" d="M1560 2942l1372 -2942h-316l-462 968h-1268l-460 -968h-328l1390 2942h72zM1524 2318l-506 -1066h1006zM1108 3632q96 0 164 -68t68 -164t-68 -164t-164 -68t-164 68t-68 164t68 164t164 68zM1924 3632q96 0 164 -68t68 -164t-68 -164t-164 -68t-164 68t-68 164t68 164 t164 68z" />
<glyph unicode="&#xc5;" horiz-adv-x="3030" d="M1560 2942l1372 -2942h-316l-462 968h-1268l-460 -968h-328l1390 2942h72zM1524 2318l-506 -1066h1006zM1514 3978q176 0 301 -125t125 -303q0 -177 -124 -301q-125 -125 -302 -125q-176 0 -301 125t-125 301q0 178 125 303t301 125zM1512 3776q-91 0 -156 -65 q-64 -64 -64 -155t64 -155q65 -65 156 -65q89 0 154 65q64 64 64 155t-64 155q-65 65 -154 65z" />
<glyph unicode="&#xc6;" horiz-adv-x="4064" d="M2 0l1900 2942h1820v-302h-1386v-904h1386v-290h-1386v-1158h1386v-288h-1684v964h-1070l-624 -964h-342zM1156 1240h882v1362z" />
<glyph unicode="&#xc7;" horiz-adv-x="3330" d="M3098 2396l-232 -178q-191 249 -461 379q-269 129 -591 129q-353 0 -652 -169q-300 -170 -465 -454q-165 -285 -165 -641q0 -538 369 -898t931 -360q619 0 1034 484l232 -176q-220 -280 -549 -433t-735 -153q-773 0 -1218 514q-374 434 -374 1048q0 646 453 1087 t1135 441q414 0 744 -163q334 -165 544 -457zM1622 0h176l-34 -236q46 6 76 6q99 0 164 -61q66 -61 66 -153q0 -132 -120 -224q-121 -92 -338 -92q-178 0 -334 60l44 138q126 -40 240 -40q151 0 210 37q60 37 60 93q0 34 -33 60q-34 26 -91 26q-48 0 -140 -18z" />
<glyph unicode="&#xc8;" horiz-adv-x="2196" d="M360 2942h1686v-290h-1392v-920h1380v-288h-1380v-1154h1380v-290h-1674v2942zM1098 3790l436 -616h-276l-590 616h430z" />
<glyph unicode="&#xc9;" horiz-adv-x="2196" d="M360 2942h1686v-290h-1392v-920h1380v-288h-1380v-1154h1380v-290h-1674v2942zM1354 3790h430l-590 -616h-276z" />
<glyph unicode="&#xca;" horiz-adv-x="2196" d="M360 2942h1686v-290h-1392v-920h1380v-288h-1380v-1154h1380v-290h-1674v2942zM1086 3680h278l580 -514h-360l-352 304l-368 -304h-372z" />
<glyph unicode="&#xcb;" horiz-adv-x="2196" d="M360 2942h1686v-290h-1392v-920h1380v-288h-1380v-1154h1380v-290h-1674v2942zM812 3632q96 0 164 -68t68 -164t-68 -164t-164 -68t-164 68t-68 164t68 164t164 68zM1628 3632q96 0 164 -68t68 -164t-68 -164t-164 -68t-164 68t-68 164t68 164t164 68z" />
<glyph unicode="&#xcc;" horiz-adv-x="926" d="M316 2942h294v-2942h-294v2942zM342 3790l436 -616h-276l-590 616h430z" />
<glyph unicode="&#xcd;" horiz-adv-x="926" d="M316 2942h294v-2942h-294v2942zM598 3790h430l-590 -616h-276z" />
<glyph unicode="&#xce;" horiz-adv-x="926" d="M316 2942h294v-2942h-294v2942zM330 3680h278l580 -514h-360l-352 304l-368 -304h-372z" />
<glyph unicode="&#xcf;" horiz-adv-x="926" d="M316 2942h294v-2942h-294v2942zM56 3632q96 0 164 -68t68 -164t-68 -164t-164 -68t-164 68t-68 164t68 164t164 68zM872 3632q96 0 164 -68t68 -164t-68 -164t-164 -68t-164 68t-68 164t68 164t164 68z" />
<glyph unicode="&#xd0;" horiz-adv-x="3236" d="M426 1334h-358v274h358v1334h732q659 0 958 -106q426 -150 667 -520t241 -882q0 -441 -191 -778q-190 -335 -496 -496q-304 -160 -853 -160h-1058v1334zM708 1334v-1056h460q612 0 846 76q332 108 523 389t191 687q0 426 -207 728q-207 301 -575 414q-276 84 -910 84 h-328v-1048h774v-274h-774z" />
<glyph unicode="&#xd1;" horiz-adv-x="3030" d="M360 0v2942h64l1956 -2252v2252h290v-2942h-66l-1940 2224v-2224h-304zM2108 3578l140 -194q-145 -105 -243 -140q-99 -36 -209 -36q-143 0 -296 74q-126 62 -166 74q-50 14 -104 14q-71 0 -133 -25q-66 -27 -183 -113l-132 204q182 194 450 194q126 0 306 -80 q170 -78 268 -78q111 0 302 106z" />
<glyph unicode="&#xd2;" horiz-adv-x="3560" d="M1760 3016q667 0 1118 -446q450 -446 450 -1098q0 -645 -449 -1096q-449 -450 -1095 -450q-655 0 -1104 448q-450 448 -450 1084q0 425 205 786q206 362 559 567t766 205zM1774 2728q-325 0 -618 -170q-292 -169 -456 -458t-164 -642q0 -524 363 -885q362 -361 875 -361 q343 0 633 166q291 166 454 454q163 287 163 640q0 350 -163 633t-459 453t-628 170zM1658 3790l436 -616h-276l-590 616h430z" />
<glyph unicode="&#xd3;" horiz-adv-x="3560" d="M1760 3016q667 0 1118 -446q450 -446 450 -1098q0 -645 -449 -1096q-449 -450 -1095 -450q-655 0 -1104 448q-450 448 -450 1084q0 425 205 786q206 362 559 567t766 205zM1774 2728q-325 0 -618 -170q-292 -169 -456 -458t-164 -642q0 -524 363 -885q362 -361 875 -361 q343 0 633 166q291 166 454 454q163 287 163 640q0 350 -163 633t-459 453t-628 170zM1916 3790h430l-590 -616h-276z" />
<glyph unicode="&#xd4;" horiz-adv-x="3560" d="M1760 3016q667 0 1118 -446q450 -446 450 -1098q0 -645 -449 -1096q-449 -450 -1095 -450q-655 0 -1104 448q-450 448 -450 1084q0 425 205 786q206 362 559 567t766 205zM1774 2728q-325 0 -618 -170q-292 -169 -456 -458t-164 -642q0 -524 363 -885q362 -361 875 -361 q343 0 633 166q291 166 454 454q163 287 163 640q0 350 -163 633t-459 453t-628 170zM1648 3680h278l580 -514h-360l-352 304l-368 -304h-372z" />
<glyph unicode="&#xd5;" horiz-adv-x="3560" d="M1760 3016q667 0 1118 -446q450 -446 450 -1098q0 -645 -449 -1096q-449 -450 -1095 -450q-655 0 -1104 448q-450 448 -450 1084q0 425 205 786q206 362 559 567t766 205zM1774 2728q-325 0 -618 -170q-292 -169 -456 -458t-164 -642q0 -524 363 -885q362 -361 875 -361 q343 0 633 166q291 166 454 454q163 287 163 640q0 350 -163 633t-459 453t-628 170zM2372 3578l140 -194q-145 -105 -243 -140q-99 -36 -209 -36q-143 0 -296 74q-126 62 -166 74q-50 14 -104 14q-71 0 -133 -25q-66 -27 -183 -113l-132 204q182 194 450 194q126 0 306 -80 q170 -78 268 -78q111 0 302 106z" />
<glyph unicode="&#xd6;" horiz-adv-x="3560" d="M1760 3016q667 0 1118 -446q450 -446 450 -1098q0 -645 -449 -1096q-449 -450 -1095 -450q-655 0 -1104 448q-450 448 -450 1084q0 425 205 786q206 362 559 567t766 205zM1774 2728q-325 0 -618 -170q-292 -169 -456 -458t-164 -642q0 -524 363 -885q362 -361 875 -361 q343 0 633 166q291 166 454 454q163 287 163 640q0 350 -163 633t-459 453t-628 170zM1372 3632q96 0 164 -68t68 -164t-68 -164t-164 -68t-164 68t-68 164t68 164t164 68zM2188 3632q96 0 164 -68t68 -164t-68 -164t-164 -68t-164 68t-68 164t68 164t164 68z" />
<glyph unicode="&#xd7;" horiz-adv-x="2482" d="M1424 1470l664 -662l-184 -184l-662 662l-664 -662l-184 184l662 662l-662 664l184 184l664 -664l662 664l184 -184z" />
<glyph unicode="&#xd8;" horiz-adv-x="3556" d="M2908 2538q200 -204 309 -477q109 -272 109 -589q0 -645 -449 -1096q-449 -450 -1095 -450q-491 0 -874 256l-328 -388l-214 174l330 388q-468 454 -468 1102q0 423 206 787q205 362 562 567q356 204 782 204q513 0 934 -296l288 348l210 -174zM888 582l1622 1908 q-337 238 -738 238q-325 0 -618 -170q-292 -169 -456 -458t-164 -644q0 -510 354 -874zM2712 2306l-1610 -1898q304 -196 670 -196q343 0 633 166q291 166 454 454q163 287 163 640q0 488 -310 834z" />
<glyph unicode="&#xd9;" horiz-adv-x="2682" d="M368 2942h294v-1776q0 -316 12 -394q22 -174 102 -291q79 -116 246 -196q165 -79 334 -79q145 0 280 62q133 61 224 172q90 109 132 266q30 112 30 460v1776h294v-1776q0 -392 -77 -637q-76 -242 -308 -423q-231 -180 -559 -180q-356 0 -610 170q-255 170 -340 450 q-54 172 -54 620v1776zM1220 3790l436 -616h-276l-590 616h430z" />
<glyph unicode="&#xda;" horiz-adv-x="2682" d="M368 2942h294v-1776q0 -316 12 -394q22 -174 102 -291q79 -116 246 -196q165 -79 334 -79q145 0 280 62q133 61 224 172q90 109 132 266q30 112 30 460v1776h294v-1776q0 -392 -77 -637q-76 -242 -308 -423q-231 -180 -559 -180q-356 0 -610 170q-255 170 -340 450 q-54 172 -54 620v1776zM1478 3790h430l-590 -616h-276z" />
<glyph unicode="&#xdb;" horiz-adv-x="2682" d="M368 2942h294v-1776q0 -316 12 -394q22 -174 102 -291q79 -116 246 -196q165 -79 334 -79q145 0 280 62q133 61 224 172q90 109 132 266q30 112 30 460v1776h294v-1776q0 -392 -77 -637q-76 -242 -308 -423q-231 -180 -559 -180q-356 0 -610 170q-255 170 -340 450 q-54 172 -54 620v1776zM1210 3680h278l580 -514h-360l-352 304l-368 -304h-372z" />
<glyph unicode="&#xdc;" horiz-adv-x="2682" d="M368 2942h294v-1776q0 -316 12 -394q22 -174 102 -291q79 -116 246 -196q165 -79 334 -79q145 0 280 62q133 61 224 172q90 109 132 266q30 112 30 460v1776h294v-1776q0 -392 -77 -637q-76 -242 -308 -423q-231 -180 -559 -180q-356 0 -610 170q-255 170 -340 450 q-54 172 -54 620v1776zM934 3632q96 0 164 -68t68 -164t-68 -164t-164 -68t-164 68t-68 164t68 164t164 68zM1750 3632q96 0 164 -68t68 -164t-68 -164t-164 -68t-164 68t-68 164t68 164t164 68z" />
<glyph unicode="&#xdd;" horiz-adv-x="2424" d="M126 2942h340l752 -1212l740 1212h340l-932 -1536v-1406h-290v1406zM1348 3790h430l-590 -616h-276z" />
<glyph unicode="&#xde;" horiz-adv-x="2424" d="M356 2942h294v-688h292q500 0 678 -44q253 -62 413 -255q161 -194 161 -485q0 -292 -156 -483q-157 -192 -430 -259q-200 -48 -748 -48h-210v-680h-294v2942zM650 1968v-1000l498 -6q301 0 442 56q140 56 220 178t80 274q0 150 -80 272q-79 121 -211 174q-129 52 -429 52 h-520z" />
<glyph unicode="&#xdf;" d="M324 0v1990q0 452 87 644t286 315t469 123q353 0 571 -206q217 -205 217 -518q0 -198 -100 -352q-101 -155 -278 -246q-98 -50 -274 -74q195 -30 298 -84q216 -114 338 -314t122 -462q0 -384 -234 -628t-600 -244q-246 0 -416 98v266q211 -98 376 -98q256 0 425 171 q169 170 169 443q0 301 -203 492q-202 190 -587 202v314h64q278 0 446 147t168 357q0 198 -140 332t-356 134q-170 0 -312 -93q-141 -92 -206 -249q-48 -122 -48 -496v-1964h-282z" />
<glyph unicode="&#xe0;" horiz-adv-x="2798" d="M2480 2176v-2176h-276v374q-174 -213 -395 -322q-219 -108 -479 -108q-462 0 -789 335t-327 815q0 470 330 804t794 334q268 0 485 -114t381 -342v400h276zM1360 1962q-235 0 -432 -115q-199 -116 -315 -323q-117 -208 -117 -440q0 -231 118 -440q119 -211 317 -327 q199 -117 427 -117q230 0 436 116t317 314t111 446q0 378 -249 632t-613 254zM1278 3196l436 -616h-276l-590 616h430z" />
<glyph unicode="&#xe1;" horiz-adv-x="2798" d="M2480 2176v-2176h-276v374q-174 -213 -395 -322q-219 -108 -479 -108q-462 0 -789 335t-327 815q0 470 330 804t794 334q268 0 485 -114t381 -342v400h276zM1360 1962q-235 0 -432 -115q-199 -116 -315 -323q-117 -208 -117 -440q0 -231 118 -440q119 -211 317 -327 q199 -117 427 -117q230 0 436 116t317 314t111 446q0 378 -249 632t-613 254zM1534 3196h430l-590 -616h-276z" />
<glyph unicode="&#xe2;" horiz-adv-x="2798" d="M2480 2176v-2176h-276v374q-174 -213 -395 -322q-219 -108 -479 -108q-462 0 -789 335t-327 815q0 470 330 804t794 334q268 0 485 -114t381 -342v400h276zM1360 1962q-235 0 -432 -115q-199 -116 -315 -323q-117 -208 -117 -440q0 -231 118 -440q119 -211 317 -327 q199 -117 427 -117q230 0 436 116t317 314t111 446q0 378 -249 632t-613 254zM1266 3084h278l580 -514h-360l-352 304l-368 -304h-372z" />
<glyph unicode="&#xe3;" horiz-adv-x="2798" d="M2480 2176v-2176h-276v374q-174 -213 -395 -322q-219 -108 -479 -108q-462 0 -789 335t-327 815q0 470 330 804t794 334q268 0 485 -114t381 -342v400h276zM1360 1962q-235 0 -432 -115q-199 -116 -315 -323q-117 -208 -117 -440q0 -231 118 -440q119 -211 317 -327 q199 -117 427 -117q230 0 436 116t317 314t111 446q0 378 -249 632t-613 254zM1992 2984l140 -194q-145 -105 -243 -140q-99 -36 -209 -36q-143 0 -296 74q-126 62 -166 74q-50 14 -104 14q-71 0 -133 -25q-66 -27 -183 -113l-132 204q182 194 450 194q126 0 306 -80 q170 -78 268 -78q111 0 302 106z" />
<glyph unicode="&#xe4;" horiz-adv-x="2798" d="M2480 2176v-2176h-276v374q-174 -213 -395 -322q-219 -108 -479 -108q-462 0 -789 335t-327 815q0 470 330 804t794 334q268 0 485 -114t381 -342v400h276zM1360 1962q-235 0 -432 -115q-199 -116 -315 -323q-117 -208 -117 -440q0 -231 118 -440q119 -211 317 -327 q199 -117 427 -117q230 0 436 116t317 314t111 446q0 378 -249 632t-613 254zM992 3036q96 0 164 -68t68 -164t-68 -164t-164 -68t-164 68t-68 164t68 164t164 68zM1808 3036q96 0 164 -68t68 -164t-68 -164t-164 -68t-164 68t-68 164t68 164t164 68z" />
<glyph unicode="&#xe5;" horiz-adv-x="2798" d="M2480 2176v-2176h-276v374q-174 -213 -395 -322q-219 -108 -479 -108q-462 0 -789 335t-327 815q0 470 330 804t794 334q268 0 485 -114t381 -342v400h276zM1360 1962q-235 0 -432 -115q-199 -116 -315 -323q-117 -208 -117 -440q0 -231 118 -440q119 -211 317 -327 q199 -117 427 -117q230 0 436 116t317 314t111 446q0 378 -249 632t-613 254zM1398 3382q176 0 301 -125t125 -303q0 -177 -124 -301q-125 -125 -302 -125q-176 0 -301 125t-125 301q0 178 125 303t301 125zM1396 3180q-91 0 -156 -65q-64 -64 -64 -155t64 -155 q65 -65 156 -65q89 0 154 65q64 64 64 155t-64 155q-65 65 -154 65z" />
<glyph unicode="&#xe6;" horiz-adv-x="4740" d="M2490 2176v-394q213 255 410 352q199 98 464 98q492 0 813 -329q321 -328 319 -843h-1958q7 -231 124 -438q115 -205 307 -314q191 -108 423 -108q250 0 448 123t346 391l240 -120q-148 -310 -426 -480t-628 -170q-308 0 -550 138q-175 98 -332 306v-388h-256v402 q-179 -223 -346 -318q-241 -140 -526 -140q-462 0 -792 335t-330 817q0 312 148 571q149 260 410 412q262 153 556 153q282 0 528 -138q175 -101 352 -314v396h256zM4186 1302q-56 229 -162 362q-108 135 -282 217q-177 83 -362 83q-192 0 -369 -85q-180 -86 -293 -226 q-115 -142 -164 -351h1632zM1374 1962q-228 0 -427 -114t-310 -315t-111 -445q0 -376 248 -627t610 -251t609 249q247 248 247 625q0 262 -107 456t-312 308t-447 114z" />
<glyph unicode="&#xe7;" horiz-adv-x="2650" d="M2424 1724l-222 -138q-288 382 -786 382q-399 0 -661 -256q-263 -257 -263 -622q0 -239 121 -448q122 -212 332 -326q212 -116 473 -116q480 0 784 382l222 -146q-156 -234 -419 -363t-599 -129q-516 0 -856 328t-340 798q0 316 159 587t437 423t622 152q216 0 417 -66 q203 -67 341 -172q141 -108 238 -270zM1284 0h176l-34 -236q46 6 76 6q99 0 164 -61q66 -61 66 -153q0 -132 -120 -224q-121 -92 -338 -92q-178 0 -334 60l44 138q126 -40 240 -40q151 0 210 37q60 37 60 93q0 34 -33 60q-34 26 -91 26q-48 0 -140 -18z" />
<glyph unicode="&#xe8;" horiz-adv-x="2662" d="M2144 722l236 -124q-115 -227 -268 -368q-152 -140 -342 -213q-189 -73 -430 -73q-532 0 -832 349t-300 789q0 413 254 738q322 412 862 412q556 0 888 -422q236 -298 240 -744h-1956q7 -379 242 -623q234 -243 578 -243q167 0 323 58q158 59 267 154q112 98 238 310z M2144 1308q-55 223 -163 358q-106 133 -283 216q-174 82 -370 82q-320 0 -550 -206q-169 -151 -254 -450h1620zM1210 3196l436 -616h-276l-590 616h430z" />
<glyph unicode="&#xe9;" horiz-adv-x="2662" d="M2144 722l236 -124q-115 -227 -268 -368q-152 -140 -342 -213q-189 -73 -430 -73q-532 0 -832 349t-300 789q0 413 254 738q322 412 862 412q556 0 888 -422q236 -298 240 -744h-1956q7 -379 242 -623q234 -243 578 -243q167 0 323 58q158 59 267 154q112 98 238 310z M2144 1308q-55 223 -163 358q-106 133 -283 216q-174 82 -370 82q-320 0 -550 -206q-169 -151 -254 -450h1620zM1468 3196h430l-590 -616h-276z" />
<glyph unicode="&#xea;" horiz-adv-x="2662" d="M2144 722l236 -124q-115 -227 -268 -368q-152 -140 -342 -213q-189 -73 -430 -73q-532 0 -832 349t-300 789q0 413 254 738q322 412 862 412q556 0 888 -422q236 -298 240 -744h-1956q7 -379 242 -623q234 -243 578 -243q167 0 323 58q158 59 267 154q112 98 238 310z M2144 1308q-55 223 -163 358q-106 133 -283 216q-174 82 -370 82q-320 0 -550 -206q-169 -151 -254 -450h1620zM1200 3084h278l580 -514h-360l-352 304l-368 -304h-372z" />
<glyph unicode="&#xeb;" horiz-adv-x="2662" d="M2144 722l236 -124q-115 -227 -268 -368q-152 -140 -342 -213q-189 -73 -430 -73q-532 0 -832 349t-300 789q0 413 254 738q322 412 862 412q556 0 888 -422q236 -298 240 -744h-1956q7 -379 242 -623q234 -243 578 -243q167 0 323 58q158 59 267 154q112 98 238 310z M2144 1308q-55 223 -163 358q-106 133 -283 216q-174 82 -370 82q-320 0 -550 -206q-169 -151 -254 -450h1620zM924 3036q96 0 164 -68t68 -164t-68 -164t-164 -68t-164 68t-68 164t68 164t164 68zM1740 3036q96 0 164 -68t68 -164t-68 -164t-164 -68t-164 68t-68 164 t68 164t164 68z" />
<glyph unicode="&#xec;" horiz-adv-x="820" d="M270 2176h282v-2176h-282v2176zM288 3196l436 -616h-276l-590 616h430z" />
<glyph unicode="&#xed;" horiz-adv-x="820" d="M270 2176h282v-2176h-282v2176zM546 3196h430l-590 -616h-276z" />
<glyph unicode="&#xee;" horiz-adv-x="820" d="M270 2176h282v-2176h-282v2176zM278 3084h278l580 -514h-360l-352 304l-368 -304h-372z" />
<glyph unicode="&#xef;" horiz-adv-x="820" d="M270 2176h282v-2176h-282v2176zM2 3036q96 0 164 -68t68 -164t-68 -164t-164 -68t-164 68t-68 164t68 164t164 68zM818 3036q96 0 164 -68t68 -164t-68 -164t-164 -68t-164 68t-68 164t68 164t164 68z" />
<glyph unicode="&#xf0;" horiz-adv-x="2682" d="M860 3016h394q104 -74 204 -156l328 136l104 -214l-234 -94q435 -420 628 -813q194 -396 194 -741q0 -331 -149 -608q-148 -276 -413 -429q-264 -153 -584 -153q-465 0 -793 334q-329 335 -329 816q0 476 325 807t771 331q233 0 502 -130q-189 255 -426 470l-436 -180 l-104 212l350 146zM1360 1964q-312 0 -562 -196q-306 -242 -306 -668q0 -378 249 -633t601 -255q228 0 427 115q200 116 310 317q111 202 111 452t-107 450t-300 309t-423 109z" />
<glyph unicode="&#xf1;" horiz-adv-x="2498" d="M312 2176h280v-390q169 224 372 335q204 111 444 111q245 0 433 -124q189 -125 279 -334q90 -210 90 -654v-1120h-278v1038q0 374 -32 502q-49 215 -188 325q-137 109 -360 109q-254 0 -455 -168q-200 -167 -265 -416q-40 -160 -40 -592v-798h-280v2176zM1842 2984 l140 -194q-145 -105 -243 -140q-99 -36 -209 -36q-143 0 -296 74q-126 62 -166 74q-50 14 -104 14q-71 0 -133 -25q-66 -27 -183 -113l-132 204q182 194 450 194q126 0 306 -80q170 -78 268 -78q111 0 302 106z" />
<glyph unicode="&#xf2;" horiz-adv-x="2682" d="M1342 2232q502 0 832 -364q300 -332 300 -786q0 -456 -317 -797t-815 -341q-500 0 -817 341t-317 797q0 452 300 784q330 366 834 366zM1342 1958q-348 0 -598 -258q-250 -257 -250 -624q0 -236 114 -440t308 -315t426 -111t426 111t308 315t114 440q0 365 -251 624 q-251 258 -597 258zM1220 3196l436 -616h-276l-590 616h430z" />
<glyph unicode="&#xf3;" horiz-adv-x="2682" d="M1342 2232q502 0 832 -364q300 -332 300 -786q0 -456 -317 -797t-815 -341q-500 0 -817 341t-317 797q0 452 300 784q330 366 834 366zM1342 1958q-348 0 -598 -258q-250 -257 -250 -624q0 -236 114 -440t308 -315t426 -111t426 111t308 315t114 440q0 365 -251 624 q-251 258 -597 258zM1478 3196h430l-590 -616h-276z" />
<glyph unicode="&#xf4;" horiz-adv-x="2682" d="M1342 2232q502 0 832 -364q300 -332 300 -786q0 -456 -317 -797t-815 -341q-500 0 -817 341t-317 797q0 452 300 784q330 366 834 366zM1342 1958q-348 0 -598 -258q-250 -257 -250 -624q0 -236 114 -440t308 -315t426 -111t426 111t308 315t114 440q0 365 -251 624 q-251 258 -597 258zM1210 3084h278l580 -514h-360l-352 304l-368 -304h-372z" />
<glyph unicode="&#xf5;" horiz-adv-x="2682" d="M1342 2232q502 0 832 -364q300 -332 300 -786q0 -456 -317 -797t-815 -341q-500 0 -817 341t-317 797q0 452 300 784q330 366 834 366zM1342 1958q-348 0 -598 -258q-250 -257 -250 -624q0 -236 114 -440t308 -315t426 -111t426 111t308 315t114 440q0 365 -251 624 q-251 258 -597 258zM1934 2984l140 -194q-145 -105 -243 -140q-99 -36 -209 -36q-143 0 -296 74q-126 62 -166 74q-50 14 -104 14q-71 0 -133 -25q-66 -27 -183 -113l-132 204q182 194 450 194q126 0 306 -80q170 -78 268 -78q111 0 302 106z" />
<glyph unicode="&#xf6;" horiz-adv-x="2682" d="M1342 2232q502 0 832 -364q300 -332 300 -786q0 -456 -317 -797t-815 -341q-500 0 -817 341t-317 797q0 452 300 784q330 366 834 366zM1342 1958q-348 0 -598 -258q-250 -257 -250 -624q0 -236 114 -440t308 -315t426 -111t426 111t308 315t114 440q0 365 -251 624 q-251 258 -597 258zM934 3036q96 0 164 -68t68 -164t-68 -164t-164 -68t-164 68t-68 164t68 164t164 68zM1750 3036q96 0 164 -68t68 -164t-68 -164t-164 -68t-164 68t-68 164t68 164t164 68z" />
<glyph unicode="&#xf7;" horiz-adv-x="2248" d="M922 2414h402v-404h-402v404zM112 1608h2024v-274h-2024v274zM922 932h402v-410h-402v410z" />
<glyph unicode="&#xf8;" horiz-adv-x="2674" d="M2204 1826q266 -323 266 -744q0 -456 -317 -797t-815 -341q-327 0 -598 164l-232 -274l-178 148l228 268q-354 342 -354 832q0 457 316 803q317 347 816 347q402 0 702 -240l232 274l184 -148zM734 458l1120 1316q-235 184 -516 184q-222 0 -419 -117 q-198 -118 -313 -324q-116 -208 -116 -441q0 -171 65 -337q64 -165 179 -281zM2014 1604l-1096 -1288q205 -106 418 -106q232 0 427 111t309 315t114 438q0 289 -172 530z" />
<glyph unicode="&#xf9;" horiz-adv-x="2490" d="M276 2176h282v-1016q0 -374 40 -512q61 -201 229 -316q170 -116 403 -116t397 113q163 113 225 297q42 126 42 534v1016h286v-1068q0 -450 -105 -678t-316 -357t-529 -129t-531 129t-318 360t-105 695v1048zM1122 3196l436 -616h-276l-590 616h430z" />
<glyph unicode="&#xfa;" horiz-adv-x="2490" d="M276 2176h282v-1016q0 -374 40 -512q61 -201 229 -316q170 -116 403 -116t397 113q163 113 225 297q42 126 42 534v1016h286v-1068q0 -450 -105 -678t-316 -357t-529 -129t-531 129t-318 360t-105 695v1048zM1380 3196h430l-590 -616h-276z" />
<glyph unicode="&#xfb;" horiz-adv-x="2490" d="M276 2176h282v-1016q0 -374 40 -512q61 -201 229 -316q170 -116 403 -116t397 113q163 113 225 297q42 126 42 534v1016h286v-1068q0 -450 -105 -678t-316 -357t-529 -129t-531 129t-318 360t-105 695v1048zM1112 3084h278l580 -514h-360l-352 304l-368 -304h-372z" />
<glyph unicode="&#xfc;" horiz-adv-x="2490" d="M276 2176h282v-1016q0 -374 40 -512q61 -201 229 -316q170 -116 403 -116t397 113q163 113 225 297q42 126 42 534v1016h286v-1068q0 -450 -105 -678t-316 -357t-529 -129t-531 129t-318 360t-105 695v1048zM836 3036q96 0 164 -68t68 -164t-68 -164t-164 -68t-164 68 t-68 164t68 164t164 68zM1652 3036q96 0 164 -68t68 -164t-68 -164t-164 -68t-164 68t-68 164t68 164t164 68z" />
<glyph unicode="&#xfd;" horiz-adv-x="2196" d="M78 2176h296l748 -1676l726 1676h298l-1298 -2972h-296l420 960zM1234 3196h430l-590 -616h-276z" />
<glyph unicode="&#xfe;" horiz-adv-x="2794" d="M316 3016h278v-1240q167 228 382 342q216 114 482 114q464 0 794 -334t330 -804q0 -480 -327 -815t-789 -335q-260 0 -478 108q-220 109 -394 322v-1170h-278v3812zM1436 1962q-364 0 -613 -254t-249 -632q0 -248 111 -446q111 -199 318 -314q208 -116 437 -116 q226 0 425 117q198 116 317 327q118 209 118 440q0 232 -117 440q-116 207 -315 323q-197 115 -432 115z" />
<glyph unicode="&#xff;" horiz-adv-x="2196" d="M78 2176h296l748 -1676l726 1676h298l-1298 -2972h-296l420 960zM710 3036q96 0 164 -68t68 -164t-68 -164t-164 -68t-164 68t-68 164t68 164t164 68zM1526 3036q96 0 164 -68t68 -164t-68 -164t-164 -68t-164 68t-68 164t68 164t164 68z" />
<glyph unicode="&#x131;" horiz-adv-x="820" d="M270 2176h282v-2176h-282v2176z" />
<glyph unicode="&#x152;" horiz-adv-x="4890" d="M3044 2942h1676v-290h-1378v-914h1378v-290h-1378v-1158h1378v-290h-1676v570q-200 -254 -376 -380q-182 -130 -398 -196q-222 -68 -482 -68q-738 0 -1196 546q-364 433 -364 984q0 416 205 780t575 572t784 208q395 0 756 -206q286 -163 496 -438v570zM1782 2732 q-494 0 -865 -374t-371 -878q0 -530 366 -899t894 -369q510 0 872 369q362 370 362 893q0 342 -166 628q-166 285 -466 458q-299 172 -626 172z" />
<glyph unicode="&#x153;" horiz-adv-x="4658" d="M4428 1062h-1952q29 -446 279 -653q251 -207 571 -207q260 0 469 134q208 133 327 386l238 -122q-187 -346 -443 -501t-609 -155q-197 0 -377 61q-184 62 -309 161q-129 102 -290 328q-180 -273 -427 -412q-245 -138 -551 -138q-470 0 -800 336t-330 820q0 540 412 874 q318 258 720 258q326 0 598 -176q199 -126 378 -400q168 266 356 392q271 184 626 184q465 0 791 -323q325 -322 325 -775zM1344 1962q-222 0 -418 -115q-197 -116 -310 -323q-114 -208 -114 -440q0 -235 113 -440q112 -204 319 -323q206 -119 428 -119q220 0 420 117 t308 314t108 441q0 375 -248 632q-247 256 -606 256zM4122 1302q-82 316 -298 487t-508 171q-314 0 -550 -200q-182 -155 -264 -458h1620z" />
<glyph unicode="&#x178;" horiz-adv-x="2424" d="M126 2942h340l752 -1212l740 1212h340l-932 -1536v-1406h-290v1406zM804 3632q96 0 164 -68t68 -164t-68 -164t-164 -68t-164 68t-68 164t68 164t164 68zM1620 3632q96 0 164 -68t68 -164t-68 -164t-164 -68t-164 68t-68 164t68 164t164 68z" />
<glyph unicode="&#x2c6;" horiz-adv-x="2056" d="M896 3084h278l580 -514h-360l-352 304l-368 -304h-372z" />
<glyph unicode="&#x2da;" horiz-adv-x="1360" d="M680 3382q176 0 301 -125t125 -303q0 -177 -124 -301q-125 -125 -302 -125q-176 0 -301 125t-125 301q0 178 125 303t301 125zM678 3180q-91 0 -156 -65q-64 -64 -64 -155t64 -155q65 -65 156 -65q89 0 154 65q64 64 64 155t-64 155q-65 65 -154 65z" />
<glyph unicode="&#x2dc;" horiz-adv-x="1798" d="M1492 2984l140 -194q-145 -105 -243 -140q-99 -36 -209 -36q-143 0 -296 74q-126 62 -166 74q-50 14 -104 14q-71 0 -133 -25q-66 -27 -183 -113l-132 204q182 194 450 194q126 0 306 -80q170 -78 268 -78q111 0 302 106z" />
<glyph unicode="&#x2000;" horiz-adv-x="1988" />
<glyph unicode="&#x2001;" horiz-adv-x="3978" />
<glyph unicode="&#x2002;" horiz-adv-x="1988" />
<glyph unicode="&#x2003;" horiz-adv-x="3978" />
<glyph unicode="&#x2004;" horiz-adv-x="1326" />
<glyph unicode="&#x2005;" horiz-adv-x="994" />
<glyph unicode="&#x2006;" horiz-adv-x="662" />
<glyph unicode="&#x2007;" horiz-adv-x="662" />
<glyph unicode="&#x2008;" horiz-adv-x="496" />
<glyph unicode="&#x2009;" horiz-adv-x="794" />
<glyph unicode="&#x200a;" horiz-adv-x="220" />
<glyph unicode="&#x2010;" horiz-adv-x="1360" d="M130 1228h1100v-244h-1100v244z" />
<glyph unicode="&#x2011;" horiz-adv-x="1360" d="M130 1228h1100v-244h-1100v244z" />
<glyph unicode="&#x2013;" horiz-adv-x="2048" d="M-24 1274h2096v-258h-2096v258z" />
<glyph unicode="&#x2014;" horiz-adv-x="4096" d="M-24 1274h4144v-258h-4144v258z" />
<glyph unicode="&#x2018;" horiz-adv-x="1438" d="M742 3016l156 -88q-76 -150 -102 -238q-27 -91 -40 -222h178v-550h-362v344q0 256 35 405q34 146 135 349z" />
<glyph unicode="&#x2019;" horiz-adv-x="1438" d="M694 1918l-154 88q76 150 102 238t38 222h-176v550h362v-344q0 -256 -35 -405q-34 -144 -137 -349z" />
<glyph unicode="&#x201a;" horiz-adv-x="1450" d="M700 -548l-154 86q76 151 102 239q26 90 38 223h-176v550h362v-344q0 -256 -35 -405q-34 -144 -137 -349z" />
<glyph unicode="&#x201c;" horiz-adv-x="2056" d="M578 3016l156 -88q-76 -150 -102 -238q-27 -91 -40 -222h178v-550h-362v344q0 256 35 405q34 146 135 349zM1468 3016l156 -88q-76 -150 -102 -238q-27 -91 -40 -222h178v-550h-362v344q0 260 34 405q35 148 136 349z" />
<glyph unicode="&#x201d;" horiz-adv-x="1982" d="M1442 1918l-154 88q76 150 102 238t38 222h-176v550h362v-344q0 -256 -35 -405q-34 -144 -137 -349zM552 1918l-154 88q76 150 102 238t38 222h-176v550h362v-344q0 -256 -35 -405q-34 -144 -137 -349z" />
<glyph unicode="&#x201e;" horiz-adv-x="2056" d="M1476 -548l-154 88q76 150 102 238t38 222h-176v550h362v-344q0 -256 -35 -405q-34 -144 -137 -349zM586 -548l-154 88q76 150 102 238t38 222h-176v550h362v-344q0 -256 -35 -405q-34 -144 -137 -349z" />
<glyph unicode="&#x2022;" horiz-adv-x="2482" d="M1240 2106q254 0 434 -180t180 -434q0 -256 -180 -436t-434 -180t-434 180t-180 436q0 254 180 434t434 180z" />
<glyph unicode="&#x2026;" horiz-adv-x="4096" d="M2048 440q102 0 174 -72t72 -176q0 -102 -72 -175t-174 -73t-174 73t-72 175q0 104 72 176t174 72zM682 440q102 0 174 -72t72 -176q0 -102 -72 -175t-174 -73t-174 73t-72 175q0 104 72 176t174 72zM3414 440q100 0 173 -72t73 -176q0 -102 -73 -175t-173 -73 q-102 0 -174 73t-72 175q0 104 72 176t174 72z" />
<glyph unicode="&#x202f;" horiz-adv-x="794" />
<glyph unicode="&#x2039;" horiz-adv-x="1028" d="M890 2176l-446 -1092l446 -1084h-296l-444 1084l444 1092h296z" />
<glyph unicode="&#x203a;" horiz-adv-x="1028" d="M140 0l446 1090l-446 1086h296l444 -1086l-444 -1090h-296z" />
<glyph unicode="&#x2044;" horiz-adv-x="680" d="M-694 -74l1846 3090h224l-1850 -3090h-220z" />
<glyph unicode="&#x2215;" horiz-adv-x="680" d="M-694 -74l1846 3090h224l-1850 -3090h-220z" />
<glyph unicode="&#x205f;" horiz-adv-x="994" />
<glyph unicode="&#x20ac;" d="M394 1930q155 503 569 793q415 291 953 291q133 0 320 -28l-74 -282q-116 24 -240 24q-397 0 -725 -212q-326 -211 -477 -586h1278l-72 -276h-1274q-14 -95 -14 -192q0 -65 10 -156h1182l-72 -274h-1050q138 -391 471 -611q334 -221 759 -221q132 0 278 34v-280 q-128 -24 -300 -24q-562 0 -971 292t-555 810h-296l70 274h176q-8 120 -8 180q0 58 8 168h-246l74 276h226z" />
<glyph unicode="&#x2122;" horiz-adv-x="4096" d="M3932 3026v-1724h-300v1420l-642 -1420h-198l-622 1420v-1420h-298v1724h486l534 -1194l564 1194h476zM1540 3026v-274h-610v-1450h-300v1450h-606v274h1516z" />
<glyph unicode="&#xf003;" horiz-adv-x="1410" d="M1124 3056v-1056h210v-194h-210v-340h-222v340h-864zM902 2000v496l-428 -496h428z" />
</font>
</defs>
</svg>
