<?xml version="1.0" standalone="no"?>
<!DOCTYPE svg PUBLIC "-//W3C//DTD SVG 1.1//EN" "http://www.w3.org/Graphics/SVG/1.1/DTD/svg11.dtd" >
<svg xmlns="http://www.w3.org/2000/svg">
<metadata>
This is a custom SVG webfont generated by Font Squirrel.
Copyright   : Typeface  The Monotype Corporation plc Data  The Monotype Corporation plc  Type Solutions Inc 199091 All Rights Reserved
Designer    : Monotype Type Drawing Office
Foundry     : Monotype Typography Inc
Foundry URL : httpwwwmonotypecomhtmlmtnamemswelcomehtml
</metadata>
<defs>
<font id="CenturyGothicBoldItalic" horiz-adv-x="1229" >
<font-face units-per-em="2048" ascent="1638" descent="-410" />
<missing-glyph horiz-adv-x="573" />
<glyph unicode=" "  horiz-adv-x="573" />
<glyph unicode="&#x09;" horiz-adv-x="573" />
<glyph unicode="&#xa0;" horiz-adv-x="573" />
<glyph unicode="!" horiz-adv-x="573" d="M46 140q0 70 49 119t119 49q69 0 118.5 -49t49.5 -119q0 -69 -49.5 -118.5t-118.5 -49.5q-70 0 -119 49.5t-49 118.5zM109 434l151 1074h275l-151 -1074h-275z" />
<glyph unicode="&#x22;" horiz-adv-x="737" d="M84 1508h267l-56 -504h-156zM495 1508h267l-56 -504h-156z" />
<glyph unicode="#" d="M61 479v199h256l30 188h-223v199h251l65 443h195l-62 -443h191l65 443h201l-65 -443h202v-199h-231l-26 -188h200v-199h-231l-71 -479h-201l70 479h-191l-70 -479h-200l70 479h-225zM516 678h189l31 188h-194z" />
<glyph unicode="$" horiz-adv-x="1147" d="M-15 287l240 121q108 -210 291 -210q104 0 172 62t68 149q0 70 -46 129q-46 58 -214 157q-182 108 -245 202q-64 93 -64 204q0 144 107.5 267t309.5 134l15 105h175l-18 -119q90 -24 156 -69t138 -134l-192 -150q-70 78 -127 107t-116 29q-75 0 -128.5 -46.5 t-53.5 -105.5q0 -31 10 -54q15 -30 46 -56q13 -12 119 -78q155 -97 209 -143q94 -80 139 -168.5t45 -193.5q0 -118 -58 -222.5t-154.5 -164.5t-245.5 -73l-37 -263h-174l36 263q-142 27 -233.5 99t-169.5 222z" />
<glyph unicode="%" horiz-adv-x="1761" d="M65 -100l1197 1405q-69 -13 -137.5 -20t-136.5 -7q-95 0 -204 12q13 -55 13 -95q0 -100 -53 -193t-141.5 -143.5t-195.5 -50.5q-137 0 -224 85.5t-87 217.5q0 179 147 302q112 95 231 95q43 0 169 -24q221 -42 371 -42q118 0 231 23.5t220 70.5h201l-1399 -1636h-202z M276 1126q0 -61 41.5 -104t103.5 -43q78 0 135 59.5t57 143.5q0 67 -39.5 108t-102.5 41q-82 0 -138.5 -59t-56.5 -146zM952 271q0 96 54.5 189.5t147 146.5t194.5 53q131 0 217.5 -87.5t86.5 -221.5q0 -101 -52.5 -193.5t-141.5 -143.5t-195 -51q-148 0 -229.5 92 t-81.5 216zM1133 287q0 -69 42 -111t106 -42q75 0 131.5 61.5t56.5 144.5q0 68 -39.5 108t-104.5 40q-80 0 -136 -58t-56 -143z" />
<glyph unicode="&#x26;" horiz-adv-x="1393" d="M65 319q0 122 75.5 226.5t283.5 225.5q-54 104 -71.5 163t-17.5 119q0 148 113.5 253t279.5 105q140 0 231.5 -89.5t91.5 -223.5q0 -109 -64 -209.5t-209 -200.5q98 -146 170 -232q107 71 185 132l146 -198q-55 -48 -116 -91l-58 -43l62 -76q96 -118 142 -180h-327 q-53 54 -99 111q-106 -71 -225 -109.5t-224 -38.5q-148 0 -258.5 106t-110.5 250zM325 327q0 -50 35 -82.5t92 -32.5q49 0 121 26q17 7 154 75q-19 23 -56 76l-115 161q-78 -42 -156 -100q-40 -29 -60 -66q-15 -28 -15 -57zM593 1054q0 -69 52 -157q151 103 151 189 q0 29 -25 50.5t-64 21.5q-48 0 -81 -31.5t-33 -72.5z" />
<glyph unicode="'" horiz-adv-x="451" d="M146 1508h266l-55 -504h-156z" />
<glyph unicode="(" horiz-adv-x="778" d="M166 259q0 234 51 469t144 423.5t253 384.5h347q-510 -489 -510 -1250q0 -196 49.5 -351.5t182.5 -360.5h-345q-93 182 -132.5 343t-39.5 342z" />
<glyph unicode=")" horiz-adv-x="778" d="M-224 -426q510 489 510 1250q0 196 -49.5 351.5t-182.5 360.5h345q93 -183 132.5 -343.5t39.5 -342.5q0 -234 -51 -468.5t-144 -423t-253 -384.5h-347z" />
<glyph unicode="*" horiz-adv-x="901" d="M107 1035l306 87l-306 85l133 223l223 -223l-77 301h254l-79 -301l226 213l117 -220l-305 -78l305 -87l-132 -217l-218 217l77 -300h-245l77 300l-223 -217z" />
<glyph unicode="+" d="M115 610v250h375v375h250v-375h374v-250h-374v-374h-250v374h-375z" />
<glyph unicode="," horiz-adv-x="573" d="M-51 -138l198 405l207 -123l-276 -360z" />
<glyph unicode="-" horiz-adv-x="860" d="M124 420l32 243h539l-31 -243h-540z" />
<glyph unicode="." horiz-adv-x="573" d="M37 140q0 70 49 119t119 49q69 0 118.5 -49t49.5 -119q0 -69 -49.5 -118.5t-118.5 -49.5q-70 0 -119 49.5t-49 118.5z" />
<glyph unicode="/" horiz-adv-x="942" d="M44 -262l661 1775h194l-662 -1775h-193z" />
<glyph unicode="0" horiz-adv-x="1147" d="M74 514q0 322 92 570q83 220 217.5 322t285.5 102q171 0 286 -149.5t115 -436.5q0 -295 -92.5 -526.5t-227.5 -332t-289 -100.5q-110 0 -196.5 60t-138.5 179.5t-52 311.5zM336 513q0 -176 41 -238.5t113 -62.5q65 0 134 65t126.5 256t57.5 418q0 160 -46 228.5 t-119 68.5q-61 0 -113 -51q-76 -76 -135 -273.5t-59 -410.5z" />
<glyph unicode="1" horiz-adv-x="1147" d="M325 1214l87 257h435l-198 -1471h-270l164 1214h-218z" />
<glyph unicode="2" horiz-adv-x="1147" d="M29 0l25 193q379 385 492 515q152 177 188 261q29 65 29 126q0 69 -45.5 114.5t-111.5 45.5q-70 0 -117 -52.5t-67 -181.5h-268q6 149 66 260.5t160 169t227 57.5q184 0 304 -118.5t120 -294.5q0 -140 -94 -303.5t-461 -540.5h495l-33 -251h-909z" />
<glyph unicode="3" horiz-adv-x="1147" d="M57 449h260q11 -112 53 -163q58 -69 152 -69q99 0 157 74t58 176q0 58 -31.5 108.5t-83 77t-157.5 32.5l33 230q127 0 193.5 57.5t66.5 145.5q0 60 -37.5 98t-94.5 38q-58 0 -99.5 -36t-52.5 -102h-254q22 180 141 286t291 106q107 0 193 -48.5t137.5 -137.5t51.5 -184 q0 -96 -56.5 -187t-171.5 -161q199 -122 199 -340q0 -201 -147 -344t-358 -143q-192 0 -317.5 133t-125.5 353z" />
<glyph unicode="4" horiz-adv-x="1147" d="M8 283l32 239l755 986h245l-129 -986h145l-32 -239h-145l-38 -283h-251l36 283h-618zM330 522h326l64 519z" />
<glyph unicode="5" horiz-adv-x="1147" d="M32 274l242 110q63 -95 119.5 -130.5t123.5 -35.5q97 0 161 76.5t64 203.5q0 95 -49 153t-118 58q-94 0 -151 -88l-245 68l227 782h703l-34 -251h-475l-84 -286q64 31 135 31q166 0 267 -109.5t101 -308.5q0 -262 -147.5 -423t-367.5 -161q-155 0 -276 78t-196 233z" />
<glyph unicode="6" horiz-adv-x="1147" d="M73 420q0 77 20 149q30 103 82 198q93 169 192 308l308 433l211 -142l-354 -494q53 14 96 14q169 0 289 -125t120 -310q0 -209 -141 -348.5t-360 -139.5q-199 0 -331 132.5t-132 324.5zM331 426q0 -87 61.5 -147.5t151.5 -60.5q95 0 159.5 65.5t64.5 161.5 q0 88 -59.5 147t-149.5 59q-94 0 -161 -66t-67 -159z" />
<glyph unicode="7" horiz-adv-x="1147" d="M171 87l639 1129h-605l32 255h918l-16 -180l-743 -1328z" />
<glyph unicode="8" horiz-adv-x="1147" d="M41 385q0 92 40 182.5t105.5 151t174.5 100.5q-71 42 -107 97q-58 88 -58 191q0 104 57 198t162.5 148.5t229.5 54.5q181 0 297 -108.5t116 -256.5q0 -110 -66.5 -202t-202.5 -149q110 -42 172 -132.5t62 -215.5q0 -138 -64.5 -247.5t-184 -171.5t-272.5 -62 q-200 0 -330.5 124t-130.5 298zM315 418q0 -86 59 -144.5t148 -58.5q100 0 168 70.5t68 172.5q0 93 -60 156.5t-142 63.5q-100 0 -170.5 -74.5t-70.5 -185.5zM464 1082q0 -65 39.5 -107t104.5 -42q72 0 122 49t50 120q0 69 -38.5 109t-102.5 40q-75 0 -125 -49.5t-50 -119.5 z" />
<glyph unicode="9" horiz-adv-x="1147" d="M121 1020q0 209 141 348.5t360 139.5q199 0 331 -132.5t132 -324.5q0 -77 -20 -149q-30 -104 -82 -198q-93 -170 -192 -309l-308 -432l-211 141l354 494q-53 -13 -96 -13q-169 0 -289 125t-120 310zM390 1025q0 -87 59.5 -146t149.5 -59q94 0 161 66t67 158 q0 88 -61.5 148t-151.5 60q-95 0 -159.5 -65.5t-64.5 -161.5z" />
<glyph unicode=":" horiz-adv-x="573" d="M37 140q0 70 49 119t119 49q69 0 118.5 -49t49.5 -119q0 -69 -49.5 -118.5t-118.5 -49.5q-70 0 -119 49.5t-49 118.5zM151 949q0 70 48.5 118.5t119.5 48.5q69 0 118.5 -49t49.5 -118t-49.5 -118t-118.5 -49q-70 0 -119 49t-49 118z" />
<glyph unicode=";" horiz-adv-x="573" d="M-51 -138l198 405l207 -123l-276 -360zM152 949q0 70 48.5 118.5t119.5 48.5q69 0 118.5 -49t49.5 -118t-49.5 -118t-118.5 -49q-70 0 -119 49t-49 118z" />
<glyph unicode="&#x37e;" horiz-adv-x="573" d="M-51 -138l198 405l207 -123l-276 -360zM152 949q0 70 48.5 118.5t119.5 48.5q69 0 118.5 -49t49.5 -118t-49.5 -118t-118.5 -49q-70 0 -119 49t-49 118z" />
<glyph unicode="&#x3c;" d="M115 624v222l999 508v-249l-712 -370l712 -369v-250z" />
<glyph unicode="=" d="M115 396v250h999v-250h-999zM115 824v250h999v-250h-999z" />
<glyph unicode="&#x3e;" d="M115 116v250l713 369l-713 370v249l999 -508v-222z" />
<glyph unicode="?" horiz-adv-x="1147" d="M86 1098q14 126 84 226t187 156t263 56q193 0 315 -115.5t122 -276.5q0 -204 -242 -382q-110 -80 -137.5 -111.5t-47 -83.5t-26.5 -131h-257q5 181 60.5 287.5t203.5 206.5q119 80 150.5 123.5t31.5 88.5q0 58 -54.5 102t-144.5 44q-199 0 -247 -190h-261zM257 140 q0 70 49 119t119 49q69 0 118 -49t49 -119q0 -69 -49 -118.5t-118 -49.5q-70 0 -119 49.5t-49 118.5z" />
<glyph unicode="@" horiz-adv-x="1515" d="M32 754q0 214 104.5 398t285 286t396.5 102q300 0 506.5 -193t206.5 -449q0 -188 -86.5 -323.5t-235.5 -211.5q-114 -58 -191 -58q-58 0 -93 31q-27 22 -29 76q-88 -97 -214 -97q-142 0 -236.5 101t-94.5 269q0 185 116 330.5t308 145.5q79 0 141 -32.5t106 -98.5l21 105 h196l-99 -583q-10 -62 -10 -70q0 -11 10.5 -20.5t24.5 -9.5q35 0 94.5 48.5t97 140t37.5 200.5q0 162 -71 286t-204 195t-305 71q-181 0 -325 -80.5t-227 -228t-83 -324.5q0 -181 84 -328t235 -229t338 -82q110 0 208 41t208 139h191q-109 -135 -193.5 -196.5t-196.5 -96.5 t-233 -35q-214 0 -397 104.5t-287 284.5t-104 392zM597 705q0 -81 46 -130t120 -49q87 0 144 71.5t57 161.5q0 78 -46.5 127.5t-116.5 49.5q-82 0 -143 -67.5t-61 -163.5z" />
<glyph unicode="A" horiz-adv-x="1515" d="M-24 0l794 1471h233l366 -1471h-268l-78 313h-581l-169 -313h-297zM579 573h377l-118 483z" />
<glyph unicode="B" horiz-adv-x="1188" d="M70 0l196 1471h230q210 0 312 -45t164.5 -140t62.5 -205q0 -92 -44 -173.5t-127 -136.5q197 -137 197 -364q0 -118 -62.5 -216t-154.5 -144.5t-266 -46.5h-508zM383 261l166 -6q125 0 182 49t57 134q0 62 -35.5 111t-94.5 69t-226 21zM465 887h50q112 0 152 16.5t68 61.5 t28 100q0 51 -25 88t-65.5 50t-164.5 13z" />
<glyph unicode="C" horiz-adv-x="1597" d="M87 679q0 213 116.5 408.5t315.5 308t434 112.5q330 0 571 -227l-201 -186q-65 75 -159 115.5t-204 40.5q-154 0 -295 -79t-219.5 -209t-78.5 -277q0 -200 138 -332.5t354 -132.5q231 0 400 134l163 -215q-251 -177 -581 -177q-232 0 -394.5 88t-261 258.5t-98.5 369.5z " />
<glyph unicode="D" horiz-adv-x="1434" d="M70 0l197 1471h234q329 0 489.5 -77.5t261 -243.5t100.5 -383q0 -223 -106.5 -409.5t-268.5 -272t-450 -85.5h-457zM383 257h91q210 0 304 35q132 50 212 171t80 299q0 146 -56.5 244.5t-159.5 152t-274 53.5h-70z" />
<glyph unicode="E" horiz-adv-x="1065" d="M52 0l193 1471h799l-34 -261h-520l-42 -304h522l-33 -259h-522l-52 -390h525l-35 -257h-801z" />
<glyph unicode="F" horiz-adv-x="983" d="M54 0l193 1471h725l-33 -261h-447l-42 -304h448l-33 -259h-449l-84 -647h-278z" />
<glyph unicode="G" horiz-adv-x="1720" d="M87 685q0 335 241.5 579t575.5 244q124 0 242 -36t213 -101t182 -174l-230 -149q-100 114 -193 158.5t-211 44.5q-255 0 -415 -205q-127 -163 -127 -362q0 -196 130.5 -329t321.5 -133q142 0 258.5 68.5t190.5 205.5h-459l34 261h744q-16 -365 -228.5 -579.5 t-541.5 -214.5q-358 0 -563 248q-165 199 -165 474z" />
<glyph unicode="H" horiz-adv-x="1393" d="M68 0l198 1471h277l-74 -555h503l75 555h278l-200 -1471h-276l91 668h-507l-90 -668h-275z" />
<glyph unicode="I" horiz-adv-x="573" d="M58 0l198 1471h270l-203 -1471h-265z" />
<glyph unicode="J" horiz-adv-x="983" d="M-47 263l219 133q58 -90 115 -130.5t101 -40.5q47 0 73 36t39 157l143 1053h276l-138 -1038q-28 -206 -70 -291.5t-122 -132t-187 -46.5q-133 0 -253.5 78t-195.5 222z" />
<glyph unicode="K" horiz-adv-x="1270" d="M74 0l196 1471h277l-68 -500l474 500h342l-641 -673l507 -798h-309l-415 654l-89 -654h-274z" />
<glyph unicode="L" horiz-adv-x="901" d="M72 0l199 1471h277l-166 -1218h457l-32 -253h-735z" />
<glyph unicode="M" horiz-adv-x="1843" d="M1 0l375 1471h250l249 -1025l508 1025h238l20 -1471h-258l-12 880l-436 -880h-211l-224 924l-235 -924h-264z" />
<glyph unicode="N" horiz-adv-x="1515" d="M71 0l195 1471h242l533 -1000l135 1000h269l-198 -1471h-236l-540 1011l-135 -1011h-265z" />
<glyph unicode="O" horiz-adv-x="1720" d="M82 639q0 345 224 593q250 276 639 276q303 0 500 -195t197 -495q0 -230 -116.5 -433.5t-310 -312.5t-444.5 -109q-314 0 -501.5 186t-187.5 490zM356 654q0 -181 111 -307t319 -126q241 0 409.5 170t168.5 413q0 201 -118.5 322t-310.5 121q-158 0 -288.5 -76.5 t-210.5 -220t-80 -296.5z" />
<glyph unicode="P" horiz-adv-x="1147" d="M71 0l198 1471h259q236 0 333 -41q120 -51 182 -142t62 -213q0 -134 -72.5 -242.5t-194.5 -158t-406 -53.5l-84 -621h-277zM465 881q226 1 295 47t69 137q0 51 -27 86t-80 49t-210 14z" />
<glyph unicode="Q" horiz-adv-x="1720" d="M82 639q0 239 114.5 440t310 315t431.5 114q309 0 506.5 -195t197.5 -495q0 -162 -62.5 -320.5t-171.5 -273.5l258 -293h-350l-117 132q-196 -100 -427 -100q-315 0 -502.5 186t-187.5 490zM356 654q0 -182 111.5 -307.5t317.5 -125.5q127 0 232 46l-220 247h354l77 -87 q136 161 136 377q0 202 -118.5 322.5t-314.5 120.5q-155 0 -285 -77t-210 -220.5t-80 -295.5z" />
<glyph unicode="R" horiz-adv-x="1188" d="M85 0l196 1471h257q238 0 335 -41q121 -51 182.5 -141.5t61.5 -214.5q0 -153 -91 -262.5t-275 -152.5l321 -659h-286l-314 642h-26l-85 -642h-276zM478 883q227 1 295.5 46.5t68.5 136.5q0 52 -27.5 87t-79.5 49t-211 14z" />
<glyph unicode="S" horiz-adv-x="1065" d="M-15 248l212 171q128 -195 277 -195q71 0 119.5 46t48.5 111q0 51 -29.5 104t-168.5 200q-147 155 -193 234q-62 107 -62 210q0 136 89 244q112 135 302 135q261 0 437 -242l-201 -178q-124 160 -231 160q-53 0 -88 -31.5t-35 -75.5q0 -41 32 -91t194 -221 q86 -91 113 -129q65 -88 93.5 -164.5t28.5 -155.5q0 -177 -126 -297t-323 -120q-300 0 -489 285z" />
<glyph unicode="T" horiz-adv-x="860" d="M45 1209l34 262h898l-32 -262h-313l-159 -1209h-274l159 1209h-313z" />
<glyph unicode="U" horiz-adv-x="1311" d="M126 400q0 88 24 260l110 811h275l-122 -908q-16 -119 -16 -168q0 -83 51.5 -129.5t149.5 -46.5q79 0 138 35q44 26 70.5 86.5t51.5 240.5l123 890h278l-120 -878q-37 -271 -97 -389t-173.5 -179.5t-276.5 -61.5q-220 0 -343 117t-123 320z" />
<glyph unicode="V" horiz-adv-x="1434" d="M105 1471h270l263 -1062l569 1062h297l-787 -1471h-247z" />
<glyph unicode="W" horiz-adv-x="1843" d="M132 1471h252l84 -953l451 953h208l175 -928l327 928h267l-520 -1471h-226l-185 974l-461 -974h-241z" />
<glyph unicode="X" horiz-adv-x="1393" d="M16 0l552 772l-318 699h284l207 -455l321 455h320l-518 -728l338 -743h-286l-224 499l-354 -499h-322z" />
<glyph unicode="Y" horiz-adv-x="1270" d="M66 1471h279l230 -589l418 589h317l-628 -883l-79 -588h-276l81 588z" />
<glyph unicode="Z" horiz-adv-x="1024" d="M18 0l585 1212h-456l36 259h831l-584 -1215h463l-34 -256h-841z" />
<glyph unicode="[" horiz-adv-x="655" d="M50 -398l266 1906h437l-35 -255h-161l-195 -1397h161l-34 -254h-439z" />
<glyph unicode="\" horiz-adv-x="1311" d="M228 1513h193l661 -1775h-193z" />
<glyph unicode="]" horiz-adv-x="655" d="M-126 -398l35 255h161l196 1397h-162l35 254h438l-266 -1906h-437z" />
<glyph unicode="^" d="M109 366l388 1105h232l390 -1105h-242l-262 748l-263 -748h-243z" />
<glyph unicode="_" horiz-adv-x="1024" d="M-12 -154h1048v-102h-1048v102z" />
<glyph unicode="`" horiz-adv-x="860" d="M216 1677h322l182 -392h-195z" />
<glyph unicode="a" horiz-adv-x="1352" d="M57 501q0 161 81 306.5t217.5 227t285.5 81.5q100 0 184.5 -46t139.5 -134l19 152h267l-142 -1088h-264l15 117q-87 -81 -162.5 -113t-169.5 -32q-216 0 -343.5 159t-127.5 370zM322 494q0 -128 75 -206t193 -78q98 0 171 44t122.5 138t49.5 192q0 129 -74.5 207.5 t-196.5 78.5q-142 0 -241 -105t-99 -271z" />
<glyph unicode="b" horiz-adv-x="1352" d="M43 0l197 1508h264l-70 -537q87 82 162.5 113.5t169.5 31.5q216 0 343.5 -159t127.5 -369q0 -161 -81 -307t-217.5 -227.5t-284.5 -81.5q-101 0 -185.5 46t-138.5 134l-20 -152h-267zM361 504q0 -129 74.5 -207.5t196.5 -78.5q142 0 241 105t99 271q0 128 -75 206.5 t-193 78.5q-98 0 -171 -44.5t-122.5 -138.5t-49.5 -192z" />
<glyph unicode="c" horiz-adv-x="1311" d="M61 482q0 263 181 448.5t466 185.5q321 0 479 -253l-226 -123q-96 122 -258 122q-109 0 -193 -46.5t-134 -134.5t-50 -186q0 -126 79 -202t217 -76q191 0 293 129l210 -148q-89 -106 -221.5 -166t-295.5 -60q-254 0 -400.5 140t-146.5 370z" />
<glyph unicode="d" horiz-adv-x="1352" d="M57 501q0 161 81 306.5t217.5 227t285.5 81.5q100 0 184.5 -46t139.5 -134l74 572h267l-197 -1508h-264l15 117q-87 -81 -162.5 -113t-169.5 -32q-216 0 -343.5 159t-127.5 370zM322 494q0 -128 75 -206t193 -78q98 0 171 44t122.5 138t49.5 192q0 129 -74.5 207.5 t-196.5 78.5q-142 0 -241 -105t-99 -271z" />
<glyph unicode="e" horiz-adv-x="1311" d="M61 484q0 265 179.5 448.5t433.5 183.5q153 0 272.5 -67t188.5 -195t69 -278q0 -47 -10 -110h-868q4 -113 74.5 -180t194.5 -67q150 0 266 100l235 -122q-79 -104 -209.5 -164.5t-289.5 -60.5q-249 0 -392.5 140t-143.5 372zM363 662h566q-30 100 -100 151.5t-169 51.5 q-98 0 -177 -53t-120 -150z" />
<glyph unicode="f" horiz-adv-x="573" d="M24 0l117 858h-114l29 230h116q28 213 62.5 291.5t93.5 117.5t146 39q113 0 209 -65l-30 -218q-55 49 -111 49q-42 0 -61.5 -30.5t-41.5 -183.5h166l-29 -230h-166l-120 -858h-266z" />
<glyph unicode="g" horiz-adv-x="1352" d="M31 -188l229 120q103 -109 268 -109q96 0 166 35t109 94.5t55 176.5q-145 -129 -329 -129q-128 0 -236.5 64.5t-170.5 181.5t-62 260q0 161 81 302.5t220.5 224.5t291.5 83q92 0 167 -36t147 -121l17 129h267l-119 -871q-35 -258 -72 -342q-58 -130 -195 -215.5 t-344 -85.5q-172 0 -299.5 66.5t-190.5 171.5zM323 511q0 -121 74 -194t198 -73q93 0 172 45t125 129t46 181q0 114 -76 189.5t-195 75.5q-145 0 -244.5 -102t-99.5 -251z" />
<glyph unicode="h" d="M46 0l204 1508h265l-72 -530q153 138 318 138q141 0 231 -89.5t90 -225.5q0 -64 -17 -191l-81 -610h-265l79 595q12 92 12 138q0 66 -37.5 101.5t-106.5 35.5q-67 0 -134 -46.5t-103 -129t-66 -309.5l-51 -385h-266z" />
<glyph unicode="i" horiz-adv-x="491" d="M10 0l148 1088h264l-146 -1088h-266zM159 1368q0 68 48.5 116.5t116.5 48.5t116.5 -48.5t48.5 -116.5t-48.5 -116.5t-116.5 -48.5t-116.5 48.5t-48.5 116.5z" />
<glyph unicode="j" horiz-adv-x="532" d="M-195 -387l32 240q45 -29 83 -29q45 0 68 38q33 55 56 228l134 998h266l-130 -963q-37 -272 -75.5 -364t-108.5 -139.5t-161 -47.5q-70 0 -164 39zM183 1368q0 68 48.5 116.5t116.5 48.5q69 0 117 -48.5t48 -116.5t-48 -116.5t-117 -48.5q-68 0 -116.5 48.5t-48.5 116.5z " />
<glyph unicode="k" horiz-adv-x="1188" d="M46 0l200 1508h263l-107 -799l430 379h366l-550 -485l481 -603h-320l-430 536l-71 -536h-262z" />
<glyph unicode="l" horiz-adv-x="491" d="M14 0l200 1508h266l-200 -1508h-266z" />
<glyph unicode="m" horiz-adv-x="1925" d="M45 0l142 1088h268l-16 -118q145 146 325 146q73 0 136.5 -25t103 -64t67.5 -109q75 97 176 147.5t210 50.5q137 0 227 -91.5t90 -237.5q0 -55 -10 -137l-86 -650h-265l73 559q15 113 15 150q0 77 -38.5 117t-108.5 40q-68 0 -137.5 -48.5t-106 -129t-61.5 -276.5 l-54 -412h-267l79 592q10 72 10 123q0 71 -41 112.5t-108 41.5q-64 0 -131.5 -44.5t-105 -121t-58.5 -234.5l-61 -469h-267z" />
<glyph unicode="n" d="M46 0l147 1088h266l-16 -110q153 138 318 138q141 0 231 -89.5t90 -225.5q0 -64 -17 -191l-81 -610h-265l79 595q12 92 12 138q0 66 -37.5 101.5t-106.5 35.5q-67 0 -134 -46.5t-103 -129t-66 -309.5l-51 -385h-266z" />
<glyph unicode="o" horiz-adv-x="1311" d="M61 480q0 274 187 455t436 181q145 0 263.5 -67t184.5 -190t66 -276q0 -254 -181 -432.5t-448 -178.5q-232 0 -370 140.5t-138 367.5zM326 491q0 -122 71.5 -196.5t190.5 -74.5q169 0 257.5 113.5t88.5 259.5q0 120 -75 195t-194 75q-164 0 -251.5 -117.5t-87.5 -254.5z " />
<glyph unicode="p" horiz-adv-x="1352" d="M-9 -398l195 1486h263l-15 -117q87 82 162.5 113.5t169.5 31.5q217 0 344 -159t127 -369q0 -161 -81 -307t-217.5 -227.5t-284.5 -81.5q-100 0 -185 46t-139 134l-72 -550h-267zM361 504q0 -129 74.5 -207.5t196.5 -78.5q142 0 241 105t99 271q0 128 -75 206.5t-193 78.5 q-97 0 -170.5 -44.5t-123 -138.5t-49.5 -192z" />
<glyph unicode="q" horiz-adv-x="1352" d="M57 501q0 161 81 306.5t217.5 227t285.5 81.5q100 0 184.5 -46t139.5 -134l19 152h267l-194 -1486h-264l67 515q-87 -81 -162.5 -113t-169.5 -32q-216 0 -343.5 159t-127.5 370zM322 494q0 -128 75 -206t193 -78q98 0 171 44t122.5 138t49.5 192q0 129 -74.5 207.5 t-196.5 78.5q-142 0 -241 -105t-99 -271z" />
<glyph unicode="r" horiz-adv-x="655" d="M-16 0l142 1088h238l-19 -148q107 176 257 176q36 0 75 -19l-96 -241q-30 9 -44 9q-77 0 -137.5 -90.5t-95.5 -365.5l-52 -409h-268z" />
<glyph unicode="s" horiz-adv-x="901" d="M-28 177l165 192q112 -148 245 -148q53 0 84.5 25.5t31.5 60.5q0 28 -24 57.5t-131 105.5q-124 88 -171 151q-66 88 -66 186q0 137 103.5 223t244.5 86q99 0 188 -47t148 -133l-127 -204q-49 73 -103 107.5t-101 34.5q-36 0 -61 -20t-25 -45q0 -24 20 -48q19 -24 115 -93 q153 -110 201.5 -188.5t48.5 -170.5q0 -121 -99.5 -229t-288.5 -108q-109 0 -198.5 44t-199.5 161z" />
<glyph unicode="t" horiz-adv-x="614" d="M31 858l31 230h131l56 404h266l-56 -404h169l-32 -230h-168l-117 -858h-267l118 858h-131z" />
<glyph unicode="u" d="M112 386q0 112 25 288l58 414h264l-73 -556q-12 -92 -12 -138q0 -72 50 -121t130 -49q103 0 158.5 63t81.5 256l75 545h264l-79 -585q-27 -198 -90.5 -306.5t-168.5 -166.5t-247 -58q-200 0 -318 115.5t-118 298.5z" />
<glyph unicode="v" horiz-adv-x="1147" d="M55 1088h262l170 -605l349 605h290l-631 -1088h-129z" />
<glyph unicode="w" horiz-adv-x="1638" d="M52 1088h257l150 -583l317 583h105l152 -583l315 583h284l-591 -1088h-129l-148 575l-310 -575h-127z" />
<glyph unicode="x" horiz-adv-x="1147" d="M-30 0l414 560l-324 528h294l190 -309l226 309h311l-395 -541l335 -547h-294l-202 329l-244 -329h-311z" />
<glyph unicode="y" horiz-adv-x="1188" d="M42 -398l309 546l-306 940h262l212 -646l372 646h288l-855 -1486h-282z" />
<glyph unicode="z" horiz-adv-x="942" d="M-71 0l555 839h-429l32 249h862l-557 -842h510l-34 -246h-939z" />
<glyph unicode="{" horiz-adv-x="696" d="M-16 390l34 240q91 4 140.5 37.5t83.5 114.5q25 60 45.5 208.5t36.5 206.5q28 105 79.5 161t154.5 90q69 23 209 23h53l-34 -240q-113 0 -148 -13.5t-52 -42.5q-12 -21 -35 -149q-40 -232 -58 -282q-30 -82 -73.5 -133.5t-126.5 -101.5q132 -83 132 -258q0 -74 -19 -258 q-10 -93 -10 -117q0 -50 47 -73q30 -15 140 -15l-34 -239h-52q-153 0 -223.5 28t-107.5 85t-37 146q0 69 21 206q19 123 19 192q0 86 -50 140q-36 38 -135 44z" />
<glyph unicode="|" d="M536 -398v1906h158v-1906h-158z" />
<glyph unicode="}" horiz-adv-x="696" d="M-209 -451l34 239q113 0 148 14t52 42q12 21 34 149q41 232 59 283q30 82 73 133.5t127 100.5q-133 84 -133 258q0 74 20 258q10 93 10 118q0 49 -48 73q-29 14 -140 14l34 240h53q153 0 223 -28.5t107 -85t37 -145.5q0 -70 -20 -207q-19 -123 -19 -192q0 -85 50 -139 q36 -39 135 -44l-34 -240q-91 -5 -140.5 -38.5t-83.5 -113.5q-26 -60 -46.5 -208.5t-35.5 -207.5q-28 -104 -80 -160.5t-155 -90.5q-69 -22 -208 -22h-53z" />
<glyph unicode="~" d="M100 564v319q152 74 250 74q64 0 140.5 -21.5t203.5 -82.5q83 -41 109 -48q35 -10 69 -10q111 0 258 113v-322q-126 -72 -247 -72q-66 0 -133 18t-218 85q-96 42 -128.5 50.5t-65.5 8.5q-50 0 -101 -22t-137 -90z" />
<glyph unicode="&#xa1;" horiz-adv-x="573" d="M4 -398l151 1074h275l-151 -1074h-275zM158 970q0 69 49 118.5t119 49.5q69 0 118 -49.5t49 -118.5q0 -70 -49 -119t-118 -49q-70 0 -119 49t-49 119z" />
<glyph unicode="&#xa2;" horiz-adv-x="1147" d="M17 -219l203 312q-150 153 -150 378q0 174 86 328t231.5 239.5t311.5 85.5q81 0 167 -29l171 261l132 -86l-159 -243q53 -35 99 -79l-147 -186q-39 36 -82 64l-394 -607q52 -14 90 -14q68 0 148.5 41.5t141.5 114.5l144 -193q-114 -110 -223.5 -157.5t-231.5 -47.5 q-107 0 -206 42l-200 -308zM320 486q0 -80 46 -166l364 563l-48 2q-144 0 -253 -117t-109 -282z" />
<glyph unicode="&#xa3;" horiz-adv-x="1147" d="M-26 -41l34 251q70 23 141 33q83 157 105.5 224.5t27.5 148.5h-220l32 252h161q-27 114 -27 199q0 189 133 315t348 126q170 0 268 -92.5t98 -236.5q0 -36 -9 -91h-269q4 31 4 53q0 51 -32.5 82t-89.5 31q-71 0 -116 -50.5t-45 -138.5q0 -51 22 -197h326l-33 -252h-279 q-1 -94 -22 -163q-28 -93 -91 -210q19 0 103 -11q62 -8 99 -8q100 0 142 109h267q-51 -181 -164 -275.5t-259 -94.5q-70 0 -224 19q-145 18 -195 18q-95 0 -236 -41z" />
<glyph unicode="&#xa4;" d="M95 1214l121 124l106 -106q70 49 144 73t152 24q75 0 146 -22t145 -72l105 103l119 -124l-104 -101q53 -72 75.5 -142.5t22.5 -152.5q0 -81 -22 -149.5t-73 -139.5l104 -104l-119 -121l-105 103q-73 -53 -144.5 -76.5t-151.5 -23.5q-79 0 -150.5 23.5t-144.5 76.5 l-105 -103l-120 121l103 104q-52 79 -72 145t-20 144q0 83 21 151.5t73 140.5zM303 816q0 -132 92.5 -225t221.5 -93t221 93.5t92 227.5q0 133 -91.5 226.5t-220.5 93.5t-222 -94t-93 -229z" />
<glyph unicode="&#xa5;" horiz-adv-x="1147" d="M20 283l21 168h286l15 115h-284l24 166h213l-229 739h271l179 -580l364 580h307l-465 -739h217l-21 -166h-298l-16 -115h296l-20 -168h-300l-38 -283h-276l38 283h-284z" />
<glyph unicode="&#xa6;" d="M537 -398v910l158 55v-965h-158zM537 744v764h158v-709z" />
<glyph unicode="&#xa7;" horiz-adv-x="1147" d="M59 -50h261q6 -57 45 -91.5t102 -34.5q66 0 103.5 31t37.5 76q0 19 -7.5 37t-23.5 35q-55 62 -262 214q-137 100 -182.5 176.5t-45.5 165.5q0 111 69 210.5t188 149.5q-55 50 -83 109.5t-28 128.5q0 153 123 266t311 113q171 0 276 -108t105 -277h-267q-4 64 -41.5 98.5 t-99.5 34.5q-58 0 -93 -30.5t-35 -72.5q0 -35 30 -72q29 -37 154 -128q158 -115 211 -171.5t78 -117.5t25 -130q0 -115 -70.5 -205t-201.5 -130q73 -55 109 -124.5t36 -153.5q0 -162 -130 -268.5t-310 -106.5q-113 0 -199 45.5t-135.5 129t-49.5 178.5v23zM325 617 q0 -39 18 -67.5t98 -90.5l160 -123q83 25 124 67.5t41 101.5q0 44 -27.5 85.5t-121.5 112.5l-130 97q-77 -23 -119.5 -73.5t-42.5 -109.5z" />
<glyph unicode="&#xa8;" horiz-adv-x="1024" d="M199 1375q0 64 49.5 112.5t116.5 48.5q52 0 87.5 -35t35.5 -84q0 -69 -48 -118t-117 -49q-56 0 -90 34.5t-34 90.5zM642 1375q0 64 49.5 112.5t116.5 48.5q52 0 87.5 -35t35.5 -84q0 -69 -48 -118t-117 -49q-56 0 -90 34.5t-34 90.5z" />
<glyph unicode="&#xa9;" horiz-adv-x="1515" d="M-8 757q0 204 102.5 381t280 279.5t383.5 102.5t383.5 -102.5t280 -279.5t102.5 -381q0 -205 -102.5 -382.5t-280.5 -280t-383 -102.5t-383 102.5t-280.5 280t-102.5 382.5zM150 758q0 -161 81 -300.5t222.5 -220.5t303.5 -81q163 0 305 81t223 219.5t81 297.5 q0 253 -177.5 430.5t-429.5 177.5q-164 0 -305.5 -81t-222.5 -221.5t-81 -301.5zM361 770q0 196 119 318t304 122q149 0 245 -75t127 -218h-176q-17 74 -68 114t-126 40q-111 0 -183 -80.5t-72 -218.5q0 -142 76.5 -229.5t182.5 -87.5q75 0 128 45t62 116h176 q-17 -131 -118 -216t-248 -85q-188 0 -308.5 126.5t-120.5 328.5z" />
<glyph unicode="&#xaa;" horiz-adv-x="737" d="M72 1095q0 174 98.5 293.5t218.5 119.5q39 0 68.5 -16.5t68.5 -64.5l9 64h198l-96 -681h-196l8 60q-49 -47 -82.5 -61.5t-81.5 -14.5q-88 0 -150.5 80.5t-62.5 220.5zM267 1121q0 -76 30 -116.5t71 -40.5q53 0 87 48q45 65 45 163q0 77 -29.5 117.5t-73.5 40.5 q-50 0 -90 -56t-40 -156z" />
<glyph unicode="&#xab;" horiz-adv-x="942" d="M-3 538l263 550h254l-263 -550l108 -538h-255zM450 538l264 550h253l-263 -550l108 -538h-254z" />
<glyph unicode="&#xac;" d="M115 824v250h999v-678l-249 1v428z" />
<glyph unicode="&#xad;" horiz-adv-x="860" d="M124 420l32 243h539l-31 -243h-540z" />
<glyph unicode="&#xae;" horiz-adv-x="1515" d="M-8 756q0 205 102.5 382t280 279.5t383.5 102.5t383.5 -102.5t280 -279.5t102.5 -383q0 -205 -102.5 -381.5t-280 -279t-383.5 -102.5q-205 0 -383 102.5t-280.5 279t-102.5 382.5zM150 758q0 -162 80.5 -301t222.5 -220t305 -81q162 0 304 80.5t223 219t81 297.5 q0 254 -177.5 431.5t-428.5 177.5q-253 0 -431.5 -177t-178.5 -427zM441 334v839h371q117 0 172 -26t88.5 -82t33.5 -135q0 -67 -20.5 -109.5t-77.5 -83.5q46 -26 63 -58.5t21 -114.5q7 -156 13.5 -181.5t35.5 -48.5h-210q-14 34 -18 57t-5 79q-3 111 -12 137t-31.5 39 t-90.5 13h-149v-325h-184zM625 1012v-199h154q89 0 118 24t29 77t-28.5 75.5t-117.5 22.5h-155z" />
<glyph unicode="&#xaf;" horiz-adv-x="1024" d="M103 1583v102h1048v-102h-1048z" />
<glyph unicode="&#xb0;" horiz-adv-x="819" d="M107 1167q0 141 102.5 241t244.5 100t242.5 -100t100.5 -244q0 -145 -101 -244.5t-245 -99.5t-244 100t-100 247zM226 1164q0 -94 67.5 -163t160.5 -69q92 0 158 67.5t66 162.5q0 99 -65 166t-158 67q-95 0 -162 -67.5t-67 -163.5z" />
<glyph unicode="&#xb1;" horiz-adv-x="1124" d="M62 0v250h999v-250h-999zM62 829v250h375v375h250v-375h374v-250h-374v-374h-250v374h-375z" />
<glyph unicode="&#xb2;" horiz-adv-x="688" d="M57 733l18 118q308 262 375 344q42 52 42 95q0 26 -22.5 45.5t-57.5 19.5q-40 0 -63.5 -24.5t-35.5 -91.5h-181q5 126 80 197.5t201 71.5q117 0 189.5 -64t72.5 -154q0 -70 -49.5 -146.5t-253.5 -257.5h270l-24 -153h-561z" />
<glyph unicode="&#xb3;" horiz-adv-x="688" d="M75 984h176q8 -115 111 -115q50 0 82 31t32 78q0 39 -35.5 65.5t-127.5 29.5l24 141q80 0 116 25.5t36 61.5q0 23 -18.5 38t-49.5 15q-67 0 -78 -68h-174q14 104 85.5 163t181.5 59q106 0 173 -59t67 -138q0 -102 -119 -173q102 -64 102 -168q0 -102 -88.5 -178.5 t-222.5 -76.5q-83 0 -146 34.5t-95 90.5t-32 144z" />
<glyph unicode="&#xb4;" horiz-adv-x="860" d="M321 1286l294 391h323l-421 -391h-196z" />
<glyph unicode="&#xb5;" horiz-adv-x="1180" d="M-69 -398l222 1486h265l-86 -571q-13 -85 -13 -123q0 -81 56 -136t137 -55q64 0 120 33.5t92.5 98.5t54.5 190l85 563h264l-164 -1088h-263l19 127q-57 -85 -118 -120.5t-131 -35.5q-66 0 -116.5 35.5t-82.5 112.5l-77 -517h-264z" />
<glyph unicode="&#xb6;" d="M163 1104q0 203 111.5 306t361.5 103h420v-116h-82v-1776h-139v1776h-144v-1776h-139v1089q-184 1 -286.5 105t-102.5 289z" />
<glyph unicode="&#xb7;" horiz-adv-x="682" d="M547 713q0 64 49.5 112.5t116.5 48.5q52 0 87.5 -35t35.5 -84q0 -69 -48 -118t-117 -49q-56 0 -90 34.5t-34 90.5z" />
<glyph unicode="&#xb8;" horiz-adv-x="696" d="M38 -335l54 129q71 -24 138 -24q53 0 82.5 23t29.5 57q0 24 -16.5 36t-62.5 12l-51 -2l53 118h169l-18 -44q60 -16 91 -52.5t31 -81.5q0 -86 -77.5 -152t-206.5 -66q-108 0 -216 47z" />
<glyph unicode="&#xb9;" horiz-adv-x="688" d="M227 1335l63 154h279l-122 -756h-183l96 602h-133z" />
<glyph unicode="&#xba;" horiz-adv-x="737" d="M70 1112q0 168 107 282t254 114q129 0 214.5 -91.5t85.5 -242.5q0 -160 -106 -270t-259 -110q-133 0 -214.5 87t-81.5 231zM267 1119q0 -71 31.5 -110t82.5 -39q65 0 109.5 56.5t44.5 152.5q0 70 -34 109.5t-85 39.5q-61 0 -105 -57t-44 -152z" />
<glyph unicode="&#xbb;" horiz-adv-x="942" d="M-79 0l263 550l-108 538h254l108 -538l-264 -550h-253zM374 0l263 550l-108 538h255l107 -538l-263 -550h-254z" />
<glyph unicode="&#xbc;" horiz-adv-x="1720" d="M235 1335l63 154h279l-122 -756h-183l96 602h-133zM296 -37l988 1545h171l-988 -1545h-171zM1020 140l22 140l452 495h168l-77 -488h82l-23 -147h-82l-22 -140h-166l22 140h-376zM1237 287h181l35 242z" />
<glyph unicode="&#xbd;" horiz-adv-x="1720" d="M235 1335l63 154h279l-122 -756h-183l96 602h-133zM271 -37l988 1545h171l-988 -1545h-171zM1033 0l18 118q308 262 375 344q42 52 42 95q0 26 -22.5 45.5t-57.5 19.5q-40 0 -63.5 -24.5t-35.5 -91.5h-181q5 126 80 197.5t201 71.5q117 0 189.5 -64t72.5 -154 q0 -70 -49.5 -146.5t-253.5 -257.5h270l-24 -153h-561z" />
<glyph unicode="&#xbe;" horiz-adv-x="1720" d="M83 984h176q8 -115 111 -115q50 0 82 31t32 78q0 39 -35.5 65.5t-127.5 29.5l24 141q80 0 116 25.5t36 61.5q0 23 -18.5 38t-49.5 15q-67 0 -78 -68h-174q14 104 85.5 163t181.5 59q106 0 173 -59t67 -138q0 -102 -119 -173q102 -64 102 -168q0 -102 -88.5 -178.5 t-222.5 -76.5q-83 0 -146 34.5t-95 90.5t-32 144zM331 -37l988 1545h171l-988 -1545h-171zM1019 140l22 140l452 495h168l-77 -488h82l-23 -147h-82l-22 -140h-166l22 140h-376zM1236 287h181l35 242z" />
<glyph unicode="&#xbf;" horiz-adv-x="1147" d="M1 -34q0 204 242 381q110 81 137.5 112.5t47 83.5t26.5 131h256q-4 -181 -59.5 -287.5t-203.5 -206.5q-119 -80 -150.5 -124t-31.5 -88q0 -58 54.5 -102t144.5 -44q199 0 246 190h262q-14 -126 -84 -226t-187 -156t-264 -56q-192 0 -314 115.5t-122 276.5zM465 970 q0 69 49.5 118.5t118.5 49.5q70 0 119 -49.5t49 -118.5q0 -70 -49 -119t-119 -49q-69 0 -118.5 49t-49.5 119z" />
<glyph unicode="&#xc0;" horiz-adv-x="1515" d="M-24 0l794 1471h233l366 -1471h-268l-78 313h-581l-169 -313h-297zM579 573h377l-118 483zM604 2006h322l182 -392h-195z" />
<glyph unicode="&#xc1;" horiz-adv-x="1515" d="M-24 0l794 1471h233l366 -1471h-268l-78 313h-581l-169 -313h-297zM579 573h377l-118 483zM709 1615l294 391h323l-421 -391h-196z" />
<glyph unicode="&#xc2;" horiz-adv-x="1515" d="M-24 0l794 1471h233l366 -1471h-268l-78 313h-581l-169 -313h-297zM494 1583l341 282h218l259 -282h-298l-90 130l-130 -130h-300zM579 573h377l-118 483z" />
<glyph unicode="&#xc3;" horiz-adv-x="1515" d="M-24 0l794 1471h233l366 -1471h-268l-78 313h-581l-169 -313h-297zM488 1783q89 57 150.5 77t123.5 20q47 0 122 -21q119 -33 167 -33q85 0 179 51l83 -155q-102 -72 -140 -86q-61 -22 -122 -22t-148 27q-71 22 -89 26q-24 4 -54 4q-98 0 -186 -53zM579 573h377l-118 483 z" />
<glyph unicode="&#xc4;" horiz-adv-x="1515" d="M-24 0l794 1471h233l366 -1471h-268l-78 313h-581l-169 -313h-297zM541 1704q0 64 49.5 112.5t116.5 48.5q52 0 87.5 -35t35.5 -84q0 -69 -48 -118t-117 -49q-56 0 -90 34.5t-34 90.5zM579 573h377l-118 483zM984 1704q0 64 49.5 112.5t116.5 48.5q52 0 87.5 -35 t35.5 -84q0 -69 -48 -118t-117 -49q-56 0 -90 34.5t-34 90.5z" />
<glyph unicode="&#xc5;" horiz-adv-x="1515" d="M-24 0l794 1471h233l366 -1471h-268l-78 313h-581l-169 -313h-297zM579 573h377l-118 483zM706 1807q0 104 75.5 178.5t180.5 74.5q81 0 133.5 -53t52.5 -140q0 -99 -77 -176t-176 -77q-82 0 -135.5 55t-53.5 138zM844 1831q0 -34 20 -55t51 -21q37 0 66 30t29 70 q0 34 -19.5 55.5t-47.5 21.5q-40 0 -69.5 -30t-29.5 -71z" />
<glyph unicode="&#xc6;" horiz-adv-x="1843" d="M-36 0l797 1471h1015l-35 -261h-523l-42 -306h527l-35 -258h-524l-54 -390h527l-34 -256h-795l42 314h-399l-171 -314h-296zM568 572h297l94 726z" />
<glyph unicode="&#xc7;" horiz-adv-x="1597" d="M87 679q0 213 116.5 408.5t315.5 308t434 112.5q330 0 571 -227l-201 -186q-65 75 -159 115.5t-204 40.5q-154 0 -295 -79t-219.5 -209t-78.5 -277q0 -200 138 -332.5t354 -132.5q231 0 400 134l163 -215q-251 -177 -581 -177q-232 0 -394.5 88t-261 258.5t-98.5 369.5z M489 -335l54 129q71 -24 138 -24q53 0 82.5 23t29.5 57q0 24 -16.5 36t-62.5 12l-51 -2l53 118h169l-18 -44q60 -16 91 -52.5t31 -81.5q0 -86 -77.5 -152t-206.5 -66q-108 0 -216 47z" />
<glyph unicode="&#xc8;" horiz-adv-x="1065" d="M52 0l193 1471h799l-34 -261h-520l-42 -304h522l-33 -259h-522l-52 -390h525l-35 -257h-801zM378 2006h322l182 -392h-195z" />
<glyph unicode="&#xc9;" horiz-adv-x="1065" d="M52 0l193 1471h799l-34 -261h-520l-42 -304h522l-33 -259h-522l-52 -390h525l-35 -257h-801zM483 1615l294 391h323l-421 -391h-196z" />
<glyph unicode="&#xca;" horiz-adv-x="1065" d="M52 0l193 1471h799l-34 -261h-520l-42 -304h522l-33 -259h-522l-52 -390h525l-35 -257h-801zM268 1583l341 282h218l259 -282h-298l-90 130l-130 -130h-300z" />
<glyph unicode="&#xcb;" horiz-adv-x="1065" d="M52 0l193 1471h799l-34 -261h-520l-42 -304h522l-33 -259h-522l-52 -390h525l-35 -257h-801zM280 1704q0 64 49.5 112.5t116.5 48.5q52 0 87.5 -35t35.5 -84q0 -69 -48 -118t-117 -49q-56 0 -90 34.5t-34 90.5zM723 1704q0 64 49.5 112.5t116.5 48.5q52 0 87.5 -35 t35.5 -84q0 -69 -48 -118t-117 -49q-56 0 -90 34.5t-34 90.5z" />
<glyph unicode="&#xcc;" horiz-adv-x="573" d="M58 0l198 1471h270l-203 -1471h-265zM121 2006h322l182 -392h-195z" />
<glyph unicode="&#xcd;" horiz-adv-x="573" d="M58 0l198 1471h270l-203 -1471h-265zM226 1615l294 391h323l-421 -391h-196z" />
<glyph unicode="&#xce;" horiz-adv-x="573" d="M11 1583l341 282h218l259 -282h-298l-90 130l-130 -130h-300zM58 0l198 1471h270l-203 -1471h-265z" />
<glyph unicode="&#xcf;" horiz-adv-x="573" d="M46 1704q0 64 49.5 112.5t116.5 48.5q52 0 87.5 -35t35.5 -84q0 -69 -48 -118t-117 -49q-56 0 -90 34.5t-34 90.5zM58 0l198 1471h270l-203 -1471h-265zM489 1704q0 64 49.5 112.5t116.5 48.5q52 0 87.5 -35t35.5 -84q0 -69 -48 -118t-117 -49q-56 0 -90 34.5t-34 90.5z " />
<glyph unicode="&#xd0;" horiz-adv-x="1520" d="M104 651l23 166h125l88 654h233q330 0 490 -77.5t261 -243.5t101 -383q0 -223 -106.5 -409.5t-268.5 -272t-451 -85.5h-456l87 651h-126zM455 257h91q211 0 305 35q132 50 212 171t80 299q0 146 -57 244.5t-159.5 152t-273.5 53.5h-71l-52 -395h322l-21 -166h-323z" />
<glyph unicode="&#xd1;" horiz-adv-x="1515" d="M71 0l195 1471h242l533 -1000l135 1000h269l-198 -1471h-236l-540 1011l-135 -1011h-265zM488 1783q89 57 150.5 77t123.5 20q47 0 122 -21q119 -33 167 -33q85 0 179 51l83 -155q-102 -72 -140 -86q-61 -22 -122 -22t-148 27q-71 22 -89 26q-24 4 -54 4q-98 0 -186 -53z " />
<glyph unicode="&#xd2;" horiz-adv-x="1720" d="M82 639q0 345 224 593q250 276 639 276q303 0 500 -195t197 -495q0 -230 -116.5 -433.5t-310 -312.5t-444.5 -109q-314 0 -501.5 186t-187.5 490zM356 654q0 -181 111 -307t319 -126q241 0 409.5 170t168.5 413q0 201 -118.5 322t-310.5 121q-158 0 -288.5 -76.5 t-210.5 -220t-80 -296.5zM707 2006h322l182 -392h-195z" />
<glyph unicode="&#xd3;" horiz-adv-x="1720" d="M82 639q0 345 224 593q250 276 639 276q303 0 500 -195t197 -495q0 -230 -116.5 -433.5t-310 -312.5t-444.5 -109q-314 0 -501.5 186t-187.5 490zM356 654q0 -181 111 -307t319 -126q241 0 409.5 170t168.5 413q0 201 -118.5 322t-310.5 121q-158 0 -288.5 -76.5 t-210.5 -220t-80 -296.5zM811 1615l294 391h323l-421 -391h-196z" />
<glyph unicode="&#xd4;" horiz-adv-x="1720" d="M82 639q0 345 224 593q250 276 639 276q303 0 500 -195t197 -495q0 -230 -116.5 -433.5t-310 -312.5t-444.5 -109q-314 0 -501.5 186t-187.5 490zM356 654q0 -181 111 -307t319 -126q241 0 409.5 170t168.5 413q0 201 -118.5 322t-310.5 121q-158 0 -288.5 -76.5 t-210.5 -220t-80 -296.5zM597 1583l341 282h218l259 -282h-298l-90 130l-130 -130h-300z" />
<glyph unicode="&#xd5;" horiz-adv-x="1720" d="M82 639q0 345 224 593q250 276 639 276q303 0 500 -195t197 -495q0 -230 -116.5 -433.5t-310 -312.5t-444.5 -109q-314 0 -501.5 186t-187.5 490zM356 654q0 -181 111 -307t319 -126q241 0 409.5 170t168.5 413q0 201 -118.5 322t-310.5 121q-158 0 -288.5 -76.5 t-210.5 -220t-80 -296.5zM591 1783q89 57 150.5 77t123.5 20q47 0 122 -21q119 -33 167 -33q85 0 179 51l83 -155q-102 -72 -140 -86q-61 -22 -122 -22t-148 27q-71 22 -89 26q-24 4 -54 4q-98 0 -186 -53z" />
<glyph unicode="&#xd6;" horiz-adv-x="1720" d="M82 639q0 345 224 593q250 276 639 276q303 0 500 -195t197 -495q0 -230 -116.5 -433.5t-310 -312.5t-444.5 -109q-314 0 -501.5 186t-187.5 490zM356 654q0 -181 111 -307t319 -126q241 0 409.5 170t168.5 413q0 201 -118.5 322t-310.5 121q-158 0 -288.5 -76.5 t-210.5 -220t-80 -296.5zM608 1704q0 64 49.5 112.5t116.5 48.5q52 0 87.5 -35t35.5 -84q0 -69 -48 -118t-117 -49q-56 0 -90 34.5t-34 90.5zM1051 1704q0 64 49.5 112.5t116.5 48.5q52 0 87.5 -35t35.5 -84q0 -69 -48 -118t-117 -49q-56 0 -90 34.5t-34 90.5z" />
<glyph unicode="&#xd7;" d="M150 419l317 317l-317 317l148 148l317 -317l316 317l148 -148l-317 -317l317 -317l-148 -147l-316 316l-317 -316z" />
<glyph unicode="&#xd8;" horiz-adv-x="1720" d="M82 639q0 239 114 440t310 315t430 114q244 0 414 -117l128 147l121 -104l-127 -150q170 -195 170 -465q0 -230 -116 -433.5t-310 -313t-443 -109.5q-225 0 -382 91l-135 -154l-121 100l132 151q-185 190 -185 488zM356 654q0 -168 97 -290l718 822q-105 61 -241 61 q-154 0 -284.5 -77t-210 -220.5t-79.5 -295.5zM576 266q91 -45 213 -45q239 0 407 170.5t168 411.5q0 157 -78 273z" />
<glyph unicode="&#xd9;" horiz-adv-x="1311" d="M126 400q0 88 24 260l110 811h275l-122 -908q-16 -119 -16 -168q0 -83 51.5 -129.5t149.5 -46.5q79 0 138 35q44 26 70.5 86.5t51.5 240.5l123 890h278l-120 -878q-37 -271 -97 -389t-173.5 -179.5t-276.5 -61.5q-220 0 -343 117t-123 320zM502 2006h322l182 -392h-195z " />
<glyph unicode="&#xda;" horiz-adv-x="1311" d="M126 400q0 88 24 260l110 811h275l-122 -908q-16 -119 -16 -168q0 -83 51.5 -129.5t149.5 -46.5q79 0 138 35q44 26 70.5 86.5t51.5 240.5l123 890h278l-120 -878q-37 -271 -97 -389t-173.5 -179.5t-276.5 -61.5q-220 0 -343 117t-123 320zM607 1615l294 391h323 l-421 -391h-196z" />
<glyph unicode="&#xdb;" horiz-adv-x="1311" d="M126 400q0 88 24 260l110 811h275l-122 -908q-16 -119 -16 -168q0 -83 51.5 -129.5t149.5 -46.5q79 0 138 35q44 26 70.5 86.5t51.5 240.5l123 890h278l-120 -878q-37 -271 -97 -389t-173.5 -179.5t-276.5 -61.5q-220 0 -343 117t-123 320zM392 1583l341 282h218 l259 -282h-298l-90 130l-130 -130h-300z" />
<glyph unicode="&#xdc;" horiz-adv-x="1311" d="M126 400q0 88 24 260l110 811h275l-122 -908q-16 -119 -16 -168q0 -83 51.5 -129.5t149.5 -46.5q79 0 138 35q44 26 70.5 86.5t51.5 240.5l123 890h278l-120 -878q-37 -271 -97 -389t-173.5 -179.5t-276.5 -61.5q-220 0 -343 117t-123 320zM439 1704q0 64 49.5 112.5 t116.5 48.5q52 0 87.5 -35t35.5 -84q0 -69 -48 -118t-117 -49q-56 0 -90 34.5t-34 90.5zM882 1704q0 64 49.5 112.5t116.5 48.5q52 0 87.5 -35t35.5 -84q0 -69 -48 -118t-117 -49q-56 0 -90 34.5t-34 90.5z" />
<glyph unicode="&#xdd;" horiz-adv-x="1270" d="M66 1471h279l230 -589l418 589h317l-628 -883l-79 -588h-276l81 588zM585 1615l294 391h323l-421 -391h-196z" />
<glyph unicode="&#xde;" horiz-adv-x="1147" d="M71 0l198 1471h277l-39 -311q197 -2 277 -27q127 -39 204.5 -135t77.5 -234q0 -133 -72.5 -241.5t-194.5 -158t-407 -54.5l-44 -310h-277zM426 571q226 0 295 46t69 138q0 51 -27.5 86t-80 49t-209.5 14z" />
<glyph unicode="&#xdf;" d="M47 0l111 866q36 283 101.5 404t188 193.5t275.5 72.5q187 0 299 -102t112 -256q0 -126 -74 -222t-206 -138q244 -122 244 -372q0 -201 -142 -337.5t-363 -136.5q-99 0 -184 35l30 250q67 -37 139 -37q110 0 185 72.5t75 179.5q0 112 -78.5 184t-214.5 73l31 210 q87 0 157 31t102.5 78t32.5 101q0 56 -44.5 96.5t-114.5 40.5q-103 0 -174.5 -75.5t-91.5 -243.5l-7 -59l-124 -908h-265z" />
<glyph unicode="&#xe0;" horiz-adv-x="1352" d="M57 501q0 161 81 306.5t217.5 227t285.5 81.5q100 0 184.5 -46t139.5 -134l19 152h267l-142 -1088h-264l15 117q-87 -81 -162.5 -113t-169.5 -32q-216 0 -343.5 159t-127.5 370zM322 494q0 -128 75 -206t193 -78q98 0 171 44t122.5 138t49.5 192q0 129 -74.5 207.5 t-196.5 78.5q-142 0 -241 -105t-99 -271zM461 1677h322l182 -392h-195z" />
<glyph unicode="&#xe1;" horiz-adv-x="1352" d="M57 501q0 161 81 306.5t217.5 227t285.5 81.5q100 0 184.5 -46t139.5 -134l19 152h267l-142 -1088h-264l15 117q-87 -81 -162.5 -113t-169.5 -32q-216 0 -343.5 159t-127.5 370zM322 494q0 -128 75 -206t193 -78q98 0 171 44t122.5 138t49.5 192q0 129 -74.5 207.5 t-196.5 78.5q-142 0 -241 -105t-99 -271zM566 1286l294 391h323l-421 -391h-196z" />
<glyph unicode="&#xe2;" horiz-adv-x="1352" d="M57 501q0 161 81 306.5t217.5 227t285.5 81.5q100 0 184.5 -46t139.5 -134l19 152h267l-142 -1088h-264l15 117q-87 -81 -162.5 -113t-169.5 -32q-216 0 -343.5 159t-127.5 370zM322 494q0 -128 75 -206t193 -78q98 0 171 44t122.5 138t49.5 192q0 129 -74.5 207.5 t-196.5 78.5q-142 0 -241 -105t-99 -271zM351 1254l341 282h218l259 -282h-298l-90 130l-130 -130h-300z" />
<glyph unicode="&#xe3;" horiz-adv-x="1352" d="M57 501q0 161 81 306.5t217.5 227t285.5 81.5q100 0 184.5 -46t139.5 -134l19 152h267l-142 -1088h-264l15 117q-87 -81 -162.5 -113t-169.5 -32q-216 0 -343.5 159t-127.5 370zM322 494q0 -128 75 -206t193 -78q98 0 171 44t122.5 138t49.5 192q0 129 -74.5 207.5 t-196.5 78.5q-142 0 -241 -105t-99 -271zM346 1454q89 57 150.5 77t123.5 20q47 0 122 -21q119 -33 167 -33q85 0 179 51l83 -155q-102 -72 -140 -86q-61 -22 -122 -22t-148 27q-71 22 -89 26q-24 4 -54 4q-98 0 -186 -53z" />
<glyph unicode="&#xe4;" horiz-adv-x="1352" d="M57 501q0 161 81 306.5t217.5 227t285.5 81.5q100 0 184.5 -46t139.5 -134l19 152h267l-142 -1088h-264l15 117q-87 -81 -162.5 -113t-169.5 -32q-216 0 -343.5 159t-127.5 370zM322 494q0 -128 75 -206t193 -78q98 0 171 44t122.5 138t49.5 192q0 129 -74.5 207.5 t-196.5 78.5q-142 0 -241 -105t-99 -271zM363 1375q0 64 49.5 112.5t116.5 48.5q52 0 87.5 -35t35.5 -84q0 -69 -48 -118t-117 -49q-56 0 -90 34.5t-34 90.5zM806 1375q0 64 49.5 112.5t116.5 48.5q52 0 87.5 -35t35.5 -84q0 -69 -48 -118t-117 -49q-56 0 -90 34.5t-34 90.5 z" />
<glyph unicode="&#xe5;" horiz-adv-x="1352" d="M57 501q0 161 81 306.5t217.5 227t285.5 81.5q100 0 184.5 -46t139.5 -134l19 152h267l-142 -1088h-264l15 117q-87 -81 -162.5 -113t-169.5 -32q-216 0 -343.5 159t-127.5 370zM322 494q0 -128 75 -206t193 -78q98 0 171 44t122.5 138t49.5 192q0 129 -74.5 207.5 t-196.5 78.5q-142 0 -241 -105t-99 -271zM564 1478q0 104 75.5 178.5t180.5 74.5q81 0 133.5 -53t52.5 -140q0 -99 -77 -176t-176 -77q-82 0 -135.5 55t-53.5 138zM702 1502q0 -34 20 -55t51 -21q37 0 66 30t29 70q0 34 -19.5 55.5t-47.5 21.5q-40 0 -69.5 -30t-29.5 -71z " />
<glyph unicode="&#xe6;" horiz-adv-x="2212" d="M75 500q0 160 81.5 305.5t219.5 228t285 82.5q97 0 182.5 -47.5t140.5 -134.5l22 182h243l-16 -121q171 121 355 121q206 0 354.5 -156.5t148.5 -380.5q0 -48 -11 -116h-886q43 -247 284 -247q156 0 269 100l236 -121q-72 -97 -206 -160t-291 -63q-107 0 -190.5 27.5 t-175.5 94.5l-12 -94h-244l15 114q-130 -142 -332 -142q-137 0 -237 62t-167.5 191t-67.5 275zM340 492q0 -130 74.5 -208t193.5 -78q96 0 173 45.5t123.5 136.5t46.5 191q0 129 -76 208.5t-195 79.5q-142 0 -241 -106.5t-99 -268.5zM1231 659h585q-29 99 -98 151.5 t-166 52.5q-98 0 -179 -49t-142 -155z" />
<glyph unicode="&#xe7;" horiz-adv-x="1311" d="M61 482q0 263 181 448.5t466 185.5q321 0 479 -253l-226 -123q-96 122 -258 122q-109 0 -193 -46.5t-134 -134.5t-50 -186q0 -126 79 -202t217 -76q191 0 293 129l210 -148q-89 -106 -221.5 -166t-295.5 -60q-254 0 -400.5 140t-146.5 370zM346 -335l54 129 q71 -24 138 -24q53 0 82.5 23t29.5 57q0 24 -16.5 36t-62.5 12l-51 -2l53 118h169l-18 -44q60 -16 91 -52.5t31 -81.5q0 -86 -77.5 -152t-206.5 -66q-108 0 -216 47z" />
<glyph unicode="&#xe8;" horiz-adv-x="1311" d="M61 484q0 265 179.5 448.5t433.5 183.5q153 0 272.5 -67t188.5 -195t69 -278q0 -47 -10 -110h-868q4 -113 74.5 -180t194.5 -67q150 0 266 100l235 -122q-79 -104 -209.5 -164.5t-289.5 -60.5q-249 0 -392.5 140t-143.5 372zM363 662h566q-30 100 -100 151.5t-169 51.5 q-98 0 -177 -53t-120 -150zM441 1677h322l182 -392h-195z" />
<glyph unicode="&#xe9;" horiz-adv-x="1311" d="M61 484q0 265 179.5 448.5t433.5 183.5q153 0 272.5 -67t188.5 -195t69 -278q0 -47 -10 -110h-868q4 -113 74.5 -180t194.5 -67q150 0 266 100l235 -122q-79 -104 -209.5 -164.5t-289.5 -60.5q-249 0 -392.5 140t-143.5 372zM363 662h566q-30 100 -100 151.5t-169 51.5 q-98 0 -177 -53t-120 -150zM546 1286l294 391h323l-421 -391h-196z" />
<glyph unicode="&#xea;" horiz-adv-x="1311" d="M61 484q0 265 179.5 448.5t433.5 183.5q153 0 272.5 -67t188.5 -195t69 -278q0 -47 -10 -110h-868q4 -113 74.5 -180t194.5 -67q150 0 266 100l235 -122q-79 -104 -209.5 -164.5t-289.5 -60.5q-249 0 -392.5 140t-143.5 372zM331 1254l341 282h218l259 -282h-298l-90 130 l-130 -130h-300zM363 662h566q-30 100 -100 151.5t-169 51.5q-98 0 -177 -53t-120 -150z" />
<glyph unicode="&#xeb;" horiz-adv-x="1311" d="M61 484q0 265 179.5 448.5t433.5 183.5q153 0 272.5 -67t188.5 -195t69 -278q0 -47 -10 -110h-868q4 -113 74.5 -180t194.5 -67q150 0 266 100l235 -122q-79 -104 -209.5 -164.5t-289.5 -60.5q-249 0 -392.5 140t-143.5 372zM343 1375q0 64 49.5 112.5t116.5 48.5 q52 0 87.5 -35t35.5 -84q0 -69 -48 -118t-117 -49q-56 0 -90 34.5t-34 90.5zM363 662h566q-30 100 -100 151.5t-169 51.5q-98 0 -177 -53t-120 -150zM786 1375q0 64 49.5 112.5t116.5 48.5q52 0 87.5 -35t35.5 -84q0 -69 -48 -118t-117 -49q-56 0 -90 34.5t-34 90.5z" />
<glyph unicode="&#xec;" horiz-adv-x="491" d="M10 0l148 1088h264l-146 -1088h-266zM31 1677h322l182 -392h-195z" />
<glyph unicode="&#xed;" horiz-adv-x="491" d="M10 0l148 1088h264l-146 -1088h-266zM136 1286l294 391h323l-421 -391h-196z" />
<glyph unicode="&#xee;" horiz-adv-x="491" d="M-79 1254l341 282h218l259 -282h-298l-90 130l-130 -130h-300zM10 0l148 1088h264l-146 -1088h-266z" />
<glyph unicode="&#xef;" horiz-adv-x="491" d="M-67 1375q0 64 49.5 112.5t116.5 48.5q52 0 87.5 -35t35.5 -84q0 -69 -48 -118t-117 -49q-56 0 -90 34.5t-34 90.5zM10 0l148 1088h264l-146 -1088h-266zM376 1375q0 64 49.5 112.5t116.5 48.5q52 0 87.5 -35t35.5 -84q0 -69 -48 -118t-117 -49q-56 0 -90 34.5t-34 90.5z " />
<glyph unicode="&#xf0;" horiz-adv-x="1311" d="M58 497q0 245 173 425t401 180q69 0 152 -23q-45 89 -107 168l-197 -58l-54 145l144 45q-59 65 -123 129h240q41 -32 80 -68l222 68l52 -147l-147 -46q144 -151 226.5 -340.5t82.5 -364.5q0 -273 -178.5 -455.5t-439.5 -182.5q-231 0 -379 149t-148 376zM322 494 q0 -121 75 -197.5t194 -76.5q154 0 249.5 111t95.5 264q0 114 -76.5 190.5t-193.5 76.5q-146 0 -245 -105t-99 -263z" />
<glyph unicode="&#xf1;" d="M46 0l147 1088h266l-16 -110q153 138 318 138q141 0 231 -89.5t90 -225.5q0 -64 -17 -191l-81 -610h-265l79 595q12 92 12 138q0 66 -37.5 101.5t-106.5 35.5q-67 0 -134 -46.5t-103 -129t-66 -309.5l-51 -385h-266zM285 1454q89 57 150.5 77t123.5 20q47 0 122 -21 q119 -33 167 -33q85 0 179 51l83 -155q-102 -72 -140 -86q-61 -22 -122 -22t-148 27q-71 22 -89 26q-24 4 -54 4q-98 0 -186 -53z" />
<glyph unicode="&#xf2;" horiz-adv-x="1311" d="M61 480q0 274 187 455t436 181q145 0 263.5 -67t184.5 -190t66 -276q0 -254 -181 -432.5t-448 -178.5q-232 0 -370 140.5t-138 367.5zM326 491q0 -122 71.5 -196.5t190.5 -74.5q169 0 257.5 113.5t88.5 259.5q0 120 -75 195t-194 75q-164 0 -251.5 -117.5t-87.5 -254.5z M442 1677h322l182 -392h-195z" />
<glyph unicode="&#xf3;" horiz-adv-x="1311" d="M61 480q0 274 187 455t436 181q145 0 263.5 -67t184.5 -190t66 -276q0 -254 -181 -432.5t-448 -178.5q-232 0 -370 140.5t-138 367.5zM326 491q0 -122 71.5 -196.5t190.5 -74.5q169 0 257.5 113.5t88.5 259.5q0 120 -75 195t-194 75q-164 0 -251.5 -117.5t-87.5 -254.5z M546 1286l294 391h323l-421 -391h-196z" />
<glyph unicode="&#xf4;" horiz-adv-x="1311" d="M61 480q0 274 187 455t436 181q145 0 263.5 -67t184.5 -190t66 -276q0 -254 -181 -432.5t-448 -178.5q-232 0 -370 140.5t-138 367.5zM326 491q0 -122 71.5 -196.5t190.5 -74.5q169 0 257.5 113.5t88.5 259.5q0 120 -75 195t-194 75q-164 0 -251.5 -117.5t-87.5 -254.5z M331 1254l341 282h218l259 -282h-298l-90 130l-130 -130h-300z" />
<glyph unicode="&#xf5;" horiz-adv-x="1311" d="M61 480q0 274 187 455t436 181q145 0 263.5 -67t184.5 -190t66 -276q0 -254 -181 -432.5t-448 -178.5q-232 0 -370 140.5t-138 367.5zM326 491q0 -122 71.5 -196.5t190.5 -74.5q169 0 257.5 113.5t88.5 259.5q0 120 -75 195t-194 75q-164 0 -251.5 -117.5t-87.5 -254.5z M326 1454q89 57 150.5 77t123.5 20q47 0 122 -21q119 -33 167 -33q85 0 179 51l83 -155q-102 -72 -140 -86q-61 -22 -122 -22t-148 27q-71 22 -89 26q-24 4 -54 4q-98 0 -186 -53z" />
<glyph unicode="&#xf6;" horiz-adv-x="1311" d="M61 480q0 274 187 455t436 181q145 0 263.5 -67t184.5 -190t66 -276q0 -254 -181 -432.5t-448 -178.5q-232 0 -370 140.5t-138 367.5zM326 491q0 -122 71.5 -196.5t190.5 -74.5q169 0 257.5 113.5t88.5 259.5q0 120 -75 195t-194 75q-164 0 -251.5 -117.5t-87.5 -254.5z M343 1375q0 64 49.5 112.5t116.5 48.5q52 0 87.5 -35t35.5 -84q0 -69 -48 -118t-117 -49q-56 0 -90 34.5t-34 90.5zM786 1375q0 64 49.5 112.5t116.5 48.5q52 0 87.5 -35t35.5 -84q0 -69 -48 -118t-117 -49q-56 0 -90 34.5t-34 90.5z" />
<glyph unicode="&#xf7;" horiz-adv-x="1124" d="M62 610v250h999v-250h-999zM401 145v321h322v-321h-322zM401 1005v321h322v-321h-322z" />
<glyph unicode="&#xf8;" horiz-adv-x="1352" d="M45 -34l151 173q-115 143 -115 340q0 174 83 319.5t228.5 231.5t306.5 86t284 -75l163 187l119 -104l-163 -187q117 -150 117 -354q0 -254 -181 -432.5t-447 -178.5q-164 0 -277 65l-153 -176zM346 492q0 -79 33 -143l427 490q-55 24 -125 24q-161 0 -248 -118.5 t-87 -252.5zM493 241q52 -21 116 -21q167 0 256.5 112.5t89.5 258.5q0 81 -33 140z" />
<glyph unicode="&#xf9;" d="M112 386q0 112 25 288l58 414h264l-73 -556q-12 -92 -12 -138q0 -72 50 -121t130 -49q103 0 158.5 63t81.5 256l75 545h264l-79 -585q-27 -198 -90.5 -306.5t-168.5 -166.5t-247 -58q-200 0 -318 115.5t-118 298.5zM400 1677h322l182 -392h-195z" />
<glyph unicode="&#xfa;" d="M112 386q0 112 25 288l58 414h264l-73 -556q-12 -92 -12 -138q0 -72 50 -121t130 -49q103 0 158.5 63t81.5 256l75 545h264l-79 -585q-27 -198 -90.5 -306.5t-168.5 -166.5t-247 -58q-200 0 -318 115.5t-118 298.5zM504 1286l294 391h323l-421 -391h-196z" />
<glyph unicode="&#xfb;" d="M112 386q0 112 25 288l58 414h264l-73 -556q-12 -92 -12 -138q0 -72 50 -121t130 -49q103 0 158.5 63t81.5 256l75 545h264l-79 -585q-27 -198 -90.5 -306.5t-168.5 -166.5t-247 -58q-200 0 -318 115.5t-118 298.5zM290 1254l341 282h218l259 -282h-298l-90 130 l-130 -130h-300z" />
<glyph unicode="&#xfc;" d="M112 386q0 112 25 288l58 414h264l-73 -556q-12 -92 -12 -138q0 -72 50 -121t130 -49q103 0 158.5 63t81.5 256l75 545h264l-79 -585q-27 -198 -90.5 -306.5t-168.5 -166.5t-247 -58q-200 0 -318 115.5t-118 298.5zM301 1375q0 64 49.5 112.5t116.5 48.5q52 0 87.5 -35 t35.5 -84q0 -69 -48 -118t-117 -49q-56 0 -90 34.5t-34 90.5zM744 1375q0 64 49.5 112.5t116.5 48.5q52 0 87.5 -35t35.5 -84q0 -69 -48 -118t-117 -49q-56 0 -90 34.5t-34 90.5z" />
<glyph unicode="&#xfd;" horiz-adv-x="1188" d="M42 -398l309 546l-306 940h262l212 -646l372 646h288l-855 -1486h-282zM485 1286l294 391h323l-421 -391h-196z" />
<glyph unicode="&#xfe;" horiz-adv-x="1352" d="M-9 -398l250 1906h267l-74 -537q87 82 162.5 113.5t169.5 31.5q217 0 344 -159t127 -369q0 -161 -81 -307t-217.5 -227.5t-284.5 -81.5q-100 0 -185 46t-139 134l-72 -550h-267zM361 504q0 -129 74.5 -207.5t196.5 -78.5q142 0 241 105t99 271q0 128 -75 206.5t-193 78.5 q-97 0 -170.5 -44.5t-123 -138.5t-49.5 -192z" />
<glyph unicode="&#xff;" horiz-adv-x="1188" d="M42 -398l309 546l-306 940h262l212 -646l372 646h288l-855 -1486h-282zM281 1375q0 64 49.5 112.5t116.5 48.5q52 0 87.5 -35t35.5 -84q0 -69 -48 -118t-117 -49q-56 0 -90 34.5t-34 90.5zM724 1375q0 64 49.5 112.5t116.5 48.5q52 0 87.5 -35t35.5 -84q0 -69 -48 -118 t-117 -49q-56 0 -90 34.5t-34 90.5z" />
<glyph unicode="&#x152;" horiz-adv-x="2171" d="M66 645q0 236 114 436t312 313.5t433 113.5q145 0 257.5 -44.5t218.5 -145.5l19 153h742l-34 -259h-471l-39 -306h472l-35 -260h-472l-52 -388h477l-37 -258h-747l17 120q-103 -83 -217.5 -120t-265.5 -37q-338 0 -515 198t-177 484zM345 650q0 -193 116 -311t307 -118 q238 0 403 169.5t165 419.5q0 196 -117 316.5t-300 120.5q-154 0 -286.5 -78t-210 -217t-77.5 -302z" />
<glyph unicode="&#x153;" horiz-adv-x="2212" d="M78 483q0 258 184 445.5t431 187.5q130 0 235 -50t184 -151q94 100 212 150.5t244 50.5q144 0 264.5 -69.5t187.5 -196t67 -278.5q0 -42 -8 -105h-869q1 -94 66.5 -171.5t204.5 -77.5q156 0 264 101l236 -121q-85 -106 -215 -166t-289 -60q-137 0 -240.5 44.5 t-191.5 141.5q-93 -93 -205.5 -139.5t-244.5 -46.5q-172 0 -277.5 58t-172.5 180t-67 273zM344 492q0 -127 71.5 -200.5t192.5 -73.5q147 0 240 102q106 115 106 276q0 113 -78.5 190.5t-198.5 77.5q-136 0 -234.5 -105.5t-98.5 -266.5zM1244 661h570q-29 97 -101 151 t-169 54q-203 0 -300 -205z" />
<glyph unicode="&#x178;" horiz-adv-x="1270" d="M66 1471h279l230 -589l418 589h317l-628 -883l-79 -588h-276l81 588zM382 1704q0 64 49.5 112.5t116.5 48.5q52 0 87.5 -35t35.5 -84q0 -69 -48 -118t-117 -49q-56 0 -90 34.5t-34 90.5zM825 1704q0 64 49.5 112.5t116.5 48.5q52 0 87.5 -35t35.5 -84q0 -69 -48 -118 t-117 -49q-56 0 -90 34.5t-34 90.5z" />
<glyph unicode="&#x2c6;" horiz-adv-x="1106" d="M229 1254l341 282h218l259 -282h-298l-90 130l-130 -130h-300z" />
<glyph unicode="&#x2dc;" horiz-adv-x="983" d="M162 1454q89 57 150.5 77t123.5 20q47 0 122 -21q119 -33 167 -33q85 0 179 51l83 -155q-102 -72 -140 -86q-61 -22 -122 -22t-148 27q-71 22 -89 26q-24 4 -54 4q-98 0 -186 -53z" />
<glyph unicode="&#x2013;" horiz-adv-x="1024" d="M-12 469v242h1048v-242h-1048z" />
<glyph unicode="&#x2014;" horiz-adv-x="2048" d="M-12 469v242h2072v-242h-2072z" />
<glyph unicode="&#x2018;" horiz-adv-x="573" d="M220 949l17 124q17 133 57.5 222t147.5 213l86 -75q-85 -111 -116 -198h100l-41 -286h-251z" />
<glyph unicode="&#x2019;" horiz-adv-x="573" d="M220 1024q85 110 116 198h-100l41 286h251l-17 -125q-17 -132 -57.5 -221t-147.5 -213z" />
<glyph unicode="&#x201a;" horiz-adv-x="573" d="M86 -198q85 111 116 198h-100l41 286h251l-17 -125q-17 -132 -57.5 -221t-147.5 -213z" />
<glyph unicode="&#x201c;" horiz-adv-x="983" d="M223 949l17 124q17 133 57.5 222t147.5 213l86 -75q-85 -111 -116 -198h100l-41 -286h-251zM630 949l16 124q18 133 58.5 222t147.5 213l86 -75q-85 -111 -116 -198h100l-42 -286h-250z" />
<glyph unicode="&#x201d;" horiz-adv-x="983" d="M223 1024q85 110 116 198h-100l41 286h251l-17 -125q-17 -132 -57.5 -221t-147.5 -213zM630 1024q85 110 116 198h-101l42 286h251l-17 -125q-17 -132 -57.5 -221t-147.5 -213z" />
<glyph unicode="&#x201e;" horiz-adv-x="983" d="M87 -198q85 111 116 198h-100l41 286h251l-17 -125q-17 -132 -57.5 -221t-147.5 -213zM494 -198q85 111 116 198h-101l42 286h251l-17 -125q-17 -132 -57.5 -221t-147.5 -213z" />
<glyph unicode="&#x2022;" d="M307 746q0 127 90 217t217 90t217 -90t90 -217q0 -128 -90 -218t-217 -90t-217 90t-90 218z" />
<glyph unicode="&#x2026;" horiz-adv-x="2048" d="M173 140q0 70 49 119t119 49q69 0 118.5 -49t49.5 -119q0 -69 -49.5 -118.5t-118.5 -49.5q-70 0 -119 49.5t-49 118.5zM856 140q0 70 49 119t119 49q69 0 118 -49t49 -119q0 -69 -49 -118.5t-118 -49.5q-70 0 -119 49.5t-49 118.5zM1538 140q0 70 49.5 119t118.5 49 q70 0 119 -49t49 -119q0 -69 -49 -118.5t-119 -49.5q-69 0 -118.5 49.5t-49.5 118.5z" />
<glyph unicode="&#x2039;" horiz-adv-x="491" d="M-9 538l263 550h254l-263 -550l108 -538h-255z" />
<glyph unicode="&#x203a;" horiz-adv-x="491" d="M-86 0l263 550l-108 538h254l108 -538l-264 -550h-253z" />
<glyph unicode="&#x20ac;" horiz-adv-x="1147" d="M10 508l51 164h66q0 46 8 127h-125l51 164h121q103 253 324.5 397.5t497.5 144.5q97 0 165 -16l-77 -248q-36 8 -82 8q-162 0 -301.5 -77t-223.5 -209h519l-52 -164h-532q-12 -49 -12 -84v-43h507l-51 -164h-426q135 -289 469 -289q101 0 203 35v-266q-94 -25 -207 -25 q-608 0 -758 545h-135z" />
<glyph unicode="&#x2122;" horiz-adv-x="2048" d="M101 1324v147h708v-147h-262v-693h-182v693h-264zM924 631v840h267l219 -540l230 540h265v-840h-176v691l-275 -691h-88l-266 691v-691h-176z" />
<glyph unicode="&#xe000;" horiz-adv-x="1090" d="M0 1090h1090v-1090h-1090v1090z" />
<glyph unicode="&#xf001;" horiz-adv-x="1065" d="M25 0l119 856h-111l32 232h112q30 172 87 257.5t158 138t221 52.5q165 0 271.5 -87.5t106.5 -239.5h-268q-7 83 -113 83q-76 0 -127.5 -49.5t-65.5 -154.5h163l-31 -232h-165l-121 -856h-268zM587 0l154 1088h269l-153 -1088h-270z" />
<glyph unicode="&#xfb01;" horiz-adv-x="1065" d="M25 0l119 856h-111l32 232h112q30 172 87 257.5t158 138t221 52.5q165 0 271.5 -87.5t106.5 -239.5h-268q-7 83 -113 83q-76 0 -127.5 -49.5t-65.5 -154.5h163l-31 -232h-165l-121 -856h-268zM587 0l154 1088h269l-153 -1088h-270z" />
<glyph unicode="&#xf002;" horiz-adv-x="1065" d="M25 0l119 856h-111l32 232h113q24 163 82 252.5t160.5 142.5t224.5 53q113 0 199 -42.5t132 -118.5t46 -162q0 -41 -16 -154l-150 -1059h-268l159 1135q6 45 6 68q0 43 -28.5 66.5t-83.5 23.5q-76 0 -127 -49t-67 -156h164l-32 -232h-165l-121 -856h-268z" />
<glyph unicode="&#xfb02;" horiz-adv-x="1065" d="M25 0l119 856h-111l32 232h113q24 163 82 252.5t160.5 142.5t224.5 53q113 0 199 -42.5t132 -118.5t46 -162q0 -41 -16 -154l-150 -1059h-268l159 1135q6 45 6 68q0 43 -28.5 66.5t-83.5 23.5q-76 0 -127 -49t-67 -156h164l-32 -232h-165l-121 -856h-268z" />
<glyph unicode="&#xfb03;" horiz-adv-x="1637" d="M24 0l117 858h-114l29 230h116q28 213 62.5 291.5t93.5 117.5t146 39q113 0 209 -65l-30 -218q-55 49 -111 49q-42 0 -61.5 -30.5t-41.5 -183.5h166l-29 -230h-166l-120 -858h-266zM597 0l117 858h-114l29 230h116q28 213 62.5 291.5t93.5 117.5t146 39q113 0 209 -65 l-30 -218q-55 49 -111 49q-42 0 -61.5 -30.5t-41.5 -183.5h166l-29 -230h-166l-120 -858h-266zM1156 0l148 1088h264l-146 -1088h-266zM1305 1368q0 68 48.5 116.5t116.5 48.5t116.5 -48.5t48.5 -116.5t-48.5 -116.5t-116.5 -48.5t-116.5 48.5t-48.5 116.5z" />
<glyph unicode="&#xfb04;" horiz-adv-x="1637" d="M24 0l117 858h-114l29 230h116q28 213 62.5 291.5t93.5 117.5t146 39q113 0 209 -65l-30 -218q-55 49 -111 49q-42 0 -61.5 -30.5t-41.5 -183.5h166l-29 -230h-166l-120 -858h-266zM597 0l117 858h-114l29 230h116q28 213 62.5 291.5t93.5 117.5t146 39q113 0 209 -65 l-30 -218q-55 49 -111 49q-42 0 -61.5 -30.5t-41.5 -183.5h166l-29 -230h-166l-120 -858h-266zM1160 0l200 1508h266l-200 -1508h-266z" />
</font>
</defs>
</svg>
